<svg width="584" height="72" viewBox="0 0 584 72" fill="none" xmlns="http://www.w3.org/2000/svg">
<g clip-path="url(#clip0_5501_1791)">
<g clip-path="url(#clip1_5501_1791)">
<path fill-rule="evenodd" clip-rule="evenodd" d="M95.8645 36.9407C95.869 47.9267 88.0486 57.3614 77.2481 59.4044C66.4442 61.4462 55.7156 55.5193 51.7043 45.2899L60.4211 36.5792V36.9407C60.4121 42.9472 64.6536 48.122 70.5465 49.3006C76.4415 50.4781 82.3478 47.3295 84.6517 41.7821C86.9556 36.2346 85.0145 29.8318 80.017 26.4946C75.0183 23.1551 68.3583 23.8107 64.1077 28.0594L39.0447 53.0846C32.506 59.6232 22.6681 61.5809 14.121 58.045C5.57268 54.5068 0 46.1733 0 36.9306C0 27.6867 5.57268 19.3532 14.121 15.8162C22.6681 12.2803 32.506 14.2368 39.0447 20.7765C40.3387 22.082 40.8397 23.9768 40.3545 25.7493C39.8715 27.5228 38.4774 28.9035 36.7004 29.3693C34.9211 29.8374 33.0283 29.3222 31.7343 28.0167C26.8199 23.1226 18.8658 23.1338 13.9637 28.0403C9.0594 32.9457 9.0594 40.8942 13.9637 45.7984C18.8658 50.706 26.8199 50.7161 31.7343 45.822L56.7771 20.7765C63.318 14.2357 73.1581 12.278 81.7064 15.8173C90.2547 19.3554 95.8263 27.6934 95.8218 36.9407H95.8645ZM195.097 36.9407C195.127 47.948 187.301 57.4141 176.479 59.4594C165.654 61.5034 154.909 55.5497 150.916 45.2899L159.633 36.5792V36.9407C159.643 42.9259 163.882 48.0692 169.756 49.2254C175.632 50.3839 181.508 47.2341 183.791 41.7035C186.074 36.1695 184.13 29.797 179.147 26.48C174.162 23.1619 167.527 23.823 163.298 28.0594L138.362 52.9993C131.843 59.5873 121.99 61.591 113.414 58.0708C104.837 54.5517 99.2366 46.2059 99.2321 36.9407V4.82342C99.4062 2.11032 101.66 0 104.379 0C107.099 0 109.352 2.11032 109.526 4.82342V17.8367C115.854 13.6688 123.838 12.9066 130.842 15.8049C137.843 18.701 142.951 24.8793 144.479 32.298L156.032 20.7552C162.574 14.2289 172.404 12.2825 180.943 15.8173C189.481 19.3554 195.051 27.6822 195.055 36.9194L195.097 36.9407ZM134.697 36.9407C134.697 31.8568 131.629 27.2736 126.93 25.3294C122.228 23.3875 116.817 24.4651 113.224 28.0639C109.628 31.6615 108.559 37.0686 110.511 41.7652C112.463 46.4584 117.057 49.515 122.144 49.5061C129.08 49.4937 134.697 43.8733 134.697 36.9407Z" fill="#1F32D6"/>
<path d="M215.728 54.9H232.969C248.757 54.9 259.697 44.399 259.697 30.8599V30.7278C259.697 17.1888 248.757 6.81983 232.969 6.81983H215.728V54.9ZM232.969 11.0467C246.264 11.0467 254.711 19.8966 254.711 30.8599V30.992C254.711 42.0214 246.264 50.6732 232.969 50.6732H220.575V11.0467H232.969ZM284.925 55.6926C291.918 55.6926 296.419 52.9847 300.158 49.0881L297.181 46.5124C294.134 49.5504 290.395 51.7959 285.063 51.7959C278.208 51.7959 272.115 47.1068 271.353 38.9834H301.266C301.404 38.3229 301.404 38.0588 301.404 37.3983C301.404 27.0294 294.896 18.7738 284.232 18.7738C274.123 18.7738 266.575 26.9633 266.575 37.2002V37.3323C266.575 48.2956 274.954 55.6926 284.925 55.6926ZM271.353 35.417C272.045 28.0861 277.239 22.6704 284.094 22.6704C291.987 22.6704 296.003 28.6805 296.557 35.417H271.353ZM319.985 55.1642H324.001L340.342 19.6324H335.218L321.993 49.8807L308.906 19.6324H303.643L319.985 55.1642ZM361.069 55.6926C368.063 55.6926 372.563 52.9847 376.303 49.0881L373.325 46.5124C370.278 49.5504 366.539 51.7959 361.208 51.7959C354.352 51.7959 348.259 47.1068 347.497 38.9834H377.41C377.549 38.3229 377.549 38.0588 377.549 37.3983C377.549 27.0294 371.04 18.7738 360.377 18.7738C350.267 18.7738 342.72 26.9633 342.72 37.2002V37.3323C342.72 48.2956 351.098 55.6926 361.069 55.6926ZM347.497 35.417C348.19 28.0861 353.383 22.6704 360.238 22.6704C368.132 22.6704 372.148 28.6805 372.702 35.417H347.497ZM385.812 54.9H390.451V4.77246H385.812V54.9ZM418.31 55.6926C429.389 55.6926 437.56 47.1729 437.56 37.2662V37.1341C437.56 27.1615 429.458 18.7738 418.449 18.7738C407.3 18.7738 399.199 27.2935 399.199 37.2662V37.3983C399.199 47.3049 407.231 55.6926 418.31 55.6926ZM418.449 51.6639C410.278 51.6639 404.046 45.2576 404.046 37.2662V37.1341C404.046 29.2749 409.932 22.8025 418.31 22.8025C426.412 22.8025 432.643 29.2749 432.643 37.2662V37.3983C432.643 45.1915 426.758 51.6639 418.449 51.6639ZM464.311 51.5978C457.04 51.5978 450.185 45.852 450.185 37.3323V37.2002C450.185 28.6805 457.04 22.8686 464.311 22.8686C471.65 22.8686 477.952 28.4823 477.952 37.2662V37.3983C477.952 46.3143 471.858 51.5978 464.311 51.5978ZM445.753 65.8634H450.393V47.7673C453.37 51.928 457.94 55.6926 465.072 55.6926C473.935 55.6926 482.868 48.824 482.868 37.2662V37.1341C482.868 25.5764 473.935 18.7738 465.072 18.7738C458.01 18.7738 453.509 22.6044 450.393 27.0294V19.6324H445.753V65.8634ZM507.195 55.6926C514.189 55.6926 518.69 52.9847 522.429 49.0881L519.451 46.5124C516.405 49.5504 512.665 51.7959 507.334 51.7959C500.479 51.7959 494.385 47.1068 493.624 38.9834H523.537C523.675 38.3229 523.675 38.0588 523.675 37.3983C523.675 27.0294 517.166 18.7738 506.503 18.7738C496.393 18.7738 488.846 26.9633 488.846 37.2002V37.3323C488.846 48.2956 497.224 55.6926 507.195 55.6926ZM493.624 35.417C494.316 28.0861 499.509 22.6704 506.364 22.6704C514.258 22.6704 518.274 28.6805 518.828 35.417H493.624ZM531.453 54.9H536.093V40.6345C536.093 29.6711 543.086 23.7932 551.396 23.7932H551.742V19.038C544.61 18.7738 538.863 23.1328 536.093 29.2088V19.6324H531.453V54.9ZM570.391 55.5605C577.662 55.5605 583.409 51.6639 583.409 45.1255V44.9934C583.409 38.7192 577.177 36.6058 571.361 34.9547C566.237 33.5677 561.459 32.1808 561.459 28.5484V28.4163C561.459 25.1801 564.506 22.8025 569.214 22.8025C572.884 22.8025 576.9 24.1895 580.362 26.3029L582.578 22.8686C578.839 20.4249 573.784 18.9059 569.353 18.9059C562.082 18.9059 556.958 23.0007 556.958 28.9446V29.0767C556.958 35.417 563.467 37.2662 569.353 38.9173C574.338 40.2382 578.839 41.6251 578.839 45.4557V45.5878C578.839 49.2863 575.308 51.6639 570.599 51.6639C566.098 51.6639 561.667 50.0788 557.581 47.1068L555.088 50.409C559.174 53.5791 565.06 55.5605 570.391 55.5605Z" fill="#6B6B6B"/>
</g>
</g>
<defs>
<clipPath id="clip0_5501_1791">
<rect width="584" height="72" fill="white"/>
</clipPath>
<clipPath id="clip1_5501_1791">
<rect width="583.227" height="63" fill="white"/>
</clipPath>
</defs>
</svg>
