<svg width="595" height="80" viewBox="0 0 595 80" fill="none" xmlns="http://www.w3.org/2000/svg">
<path fill-rule="evenodd" clip-rule="evenodd" d="M100.56 38.7C100.564 50.2092 92.361 60.0932 81.0315 62.2334C69.6984 64.3725 58.4444 58.1634 54.2366 47.4468L63.3803 38.3213V38.7C63.3709 44.9926 67.8202 50.4138 74.0016 51.6485C80.1854 52.8821 86.381 49.5835 88.7977 43.7719C91.2145 37.9603 89.1783 31.2525 83.936 27.7564C78.6925 24.2579 71.7063 24.9447 67.2476 29.3957L40.957 55.6127C34.098 62.4628 23.7784 64.5136 14.8126 60.8093C5.84562 57.1027 0 48.3723 0 38.6894C0 29.0053 5.84562 20.2749 14.8126 16.5694C23.7784 12.8651 34.098 14.9148 40.957 21.766C42.3144 23.1337 42.84 25.1187 42.3309 26.9755C41.8243 28.8336 40.362 30.28 38.4979 30.768C36.6314 31.2584 34.646 30.7187 33.2885 29.351C28.1334 24.2238 19.7898 24.2355 14.6476 29.3757C9.5031 34.5147 9.5031 42.8417 14.6476 47.9795C19.7898 53.1209 28.1334 53.1314 33.2885 48.0042L59.5579 21.766C66.4192 14.9136 76.7412 12.8627 85.7082 16.5706C94.6752 20.2772 100.52 29.0123 100.515 38.7H100.56ZM204.652 38.7C204.684 50.2315 196.474 60.1485 185.123 62.2911C173.767 64.4325 162.497 58.1952 158.308 47.4468L167.451 38.3213V38.7C167.462 44.9702 171.909 50.3585 178.07 51.5698C184.234 52.7834 190.398 49.4836 192.792 43.6896C195.188 37.8921 193.148 31.2161 187.921 27.7411C182.692 24.2649 175.733 24.9576 171.296 29.3957L145.139 55.5234C138.3 62.4251 127.965 64.5242 118.968 60.8364C109.972 57.1497 104.097 48.4064 104.092 38.7V5.05314C104.275 2.21082 106.639 0 109.491 0C112.344 0 114.708 2.21082 114.89 5.05314V18.6861C121.528 14.3198 129.903 13.5213 137.25 16.5576C144.594 19.5916 149.952 26.0642 151.555 33.8361L163.674 21.7437C170.536 14.9066 180.848 12.8675 189.805 16.5706C198.762 20.2772 204.604 29.0006 204.608 38.6776L204.652 38.7ZM141.294 38.7C141.294 33.374 138.076 28.5725 133.147 26.5357C128.215 24.5013 122.539 25.6302 118.769 29.4004C114.998 33.1694 113.876 38.834 115.924 43.7543C117.972 48.671 122.79 51.8732 128.126 51.8638C135.402 51.8508 141.294 45.9627 141.294 38.7Z" fill="#1F32D6"/>
<path d="M227 59.5146H244.256C260.058 59.5146 271.008 48.5135 271.008 34.3297V34.1914C271.008 20.0076 260.058 9.14486 244.256 9.14486H227V59.5146ZM244.256 13.573C257.563 13.573 266.018 22.8443 266.018 34.3297V34.4681C266.018 46.0227 257.563 55.0865 244.256 55.0865H231.851V13.573H244.256ZM296.257 60.3449C303.257 60.3449 307.761 57.5081 311.504 53.4259L308.524 50.7276C305.474 53.9103 301.732 56.2627 296.396 56.2627C289.535 56.2627 283.436 51.3503 282.674 42.84H312.613C312.751 42.1481 312.751 41.8714 312.751 41.1795C312.751 30.3168 306.237 21.6681 295.564 21.6681C285.446 21.6681 277.892 30.2476 277.892 40.9719V41.1103C277.892 52.5957 286.277 60.3449 296.257 60.3449ZM282.674 39.1038C283.367 31.4238 288.564 25.7503 295.425 25.7503C303.326 25.7503 307.346 32.0465 307.9 39.1038H282.674ZM331.348 59.7914H335.367L351.723 22.5676H346.594L333.357 54.2562L320.259 22.5676H314.992L331.348 59.7914ZM372.467 60.3449C379.467 60.3449 383.972 57.5081 387.714 53.4259L384.734 50.7276C381.685 53.9103 377.942 56.2627 372.606 56.2627C365.745 56.2627 359.646 51.3503 358.884 42.84H388.823C388.962 42.1481 388.962 41.8714 388.962 41.1795C388.962 30.3168 382.447 21.6681 371.774 21.6681C361.656 21.6681 354.102 30.2476 354.102 40.9719V41.1103C354.102 52.5957 362.488 60.3449 372.467 60.3449ZM358.884 39.1038C359.577 31.4238 364.775 25.7503 371.636 25.7503C379.536 25.7503 383.556 32.0465 384.11 39.1038H358.884ZM397.232 59.5146H401.875V7H397.232V59.5146ZM429.758 60.3449C440.847 60.3449 449.024 51.4195 449.024 41.0411V40.9027C449.024 30.4551 440.916 21.6681 429.897 21.6681C418.739 21.6681 410.63 30.5935 410.63 41.0411V41.1795C410.63 51.5578 418.67 60.3449 429.758 60.3449ZM429.897 56.1243C421.719 56.1243 415.482 49.413 415.482 41.0411V40.9027C415.482 32.6692 421.372 25.8886 429.758 25.8886C437.867 25.8886 444.104 32.6692 444.104 41.0411V41.1795C444.104 49.3438 438.213 56.1243 429.897 56.1243ZM475.799 56.0551C468.522 56.0551 461.661 50.0357 461.661 41.1103V40.9719C461.661 32.0465 468.522 25.9578 475.799 25.9578C483.145 25.9578 489.451 31.8389 489.451 41.0411V41.1795C489.451 50.52 483.353 56.0551 475.799 56.0551ZM457.225 71H461.869V52.0422C464.849 56.4011 469.423 60.3449 476.561 60.3449C485.432 60.3449 494.372 53.1492 494.372 41.0411V40.9027C494.372 28.7946 485.432 21.6681 476.561 21.6681C469.492 21.6681 464.987 25.6811 461.869 30.3168V22.5676H457.225V71ZM518.72 60.3449C525.72 60.3449 530.225 57.5081 533.967 53.4259L530.987 50.7276C527.938 53.9103 524.195 56.2627 518.859 56.2627C511.998 56.2627 505.899 51.3503 505.137 42.84H535.076C535.214 42.1481 535.214 41.8714 535.214 41.1795C535.214 30.3168 528.7 21.6681 518.027 21.6681C507.909 21.6681 500.355 30.2476 500.355 40.9719V41.1103C500.355 52.5957 508.741 60.3449 518.72 60.3449ZM505.137 39.1038C505.83 31.4238 511.028 25.7503 517.889 25.7503C525.789 25.7503 529.809 32.0465 530.363 39.1038H505.137ZM542.999 59.5146H547.643V44.5697C547.643 33.0843 554.642 26.9265 562.959 26.9265H563.305V21.9449C556.167 21.6681 550.415 26.2346 547.643 32.6V22.5676H542.999V59.5146ZM581.971 60.2065C589.248 60.2065 595 56.1243 595 49.2746V49.1362C595 42.5632 588.763 40.3492 582.941 38.6195C577.813 37.1665 573.031 35.7135 573.031 31.9081V31.7697C573.031 28.3795 576.08 25.8886 580.793 25.8886C584.466 25.8886 588.486 27.3416 591.951 29.5557L594.168 25.9578C590.426 23.3978 585.367 21.8065 580.931 21.8065C573.655 21.8065 568.526 26.0962 568.526 32.3232V32.4616C568.526 39.1038 575.041 41.0411 580.931 42.7708C585.921 44.1546 590.426 45.6076 590.426 49.6205V49.7589C590.426 53.6335 586.892 56.1243 582.179 56.1243C577.674 56.1243 573.239 54.4638 569.15 51.3503L566.655 54.8097C570.744 58.1308 576.635 60.2065 581.971 60.2065Z" fill="#6B6B6B"/>
</svg>
