<svg width="621" height="75" viewBox="0 0 621 75" fill="none" xmlns="http://www.w3.org/2000/svg">
<g clip-path="url(#clip0_5080_6284)">
<g clip-path="url(#clip1_5080_6284)">
<path fill-rule="evenodd" clip-rule="evenodd" d="M104.813 38.5866C104.818 50.0621 96.2679 59.9172 84.4591 62.0512C72.6467 64.184 60.9166 57.9931 56.5308 47.3078L66.0613 38.2091V38.5866C66.0515 44.8608 70.689 50.2661 77.1319 51.4973C83.5773 52.7272 90.035 49.4383 92.5539 43.6437C95.0728 37.8491 92.9506 31.161 87.4865 27.6751C82.0212 24.1868 74.7395 24.8716 70.0921 29.3096L42.6895 55.4498C35.5404 62.2798 24.7842 64.3247 15.4392 60.6312C6.09289 56.9354 0 48.2306 0 38.576C0 28.9203 6.09289 20.2155 15.4392 16.5209C24.7842 12.8274 35.5404 14.8711 42.6895 21.7023C44.1043 23.0659 44.6521 25.0451 44.1215 26.8965C43.5934 28.7491 42.0693 30.1913 40.1263 30.6779C38.1809 31.1669 36.1115 30.6287 34.6967 29.265C29.3235 24.1528 20.6269 24.1646 15.2672 29.2897C9.90509 34.4136 9.90509 42.7162 15.2672 47.839C20.6269 52.9653 29.3235 52.9758 34.6967 47.8636L62.0772 21.7023C69.2287 14.87 79.9874 12.8251 89.3337 16.522C98.6799 20.2178 104.772 28.9273 104.767 38.5866H104.813ZM213.309 38.5866C213.342 50.0844 204.785 59.9723 192.953 62.1086C181.118 64.2438 169.37 58.0247 165.004 47.3078L174.535 38.2091V38.5866C174.546 44.8385 179.181 50.211 185.603 51.4187C192.027 52.6288 198.452 49.3387 200.947 43.5616C203.444 37.7811 201.318 31.1247 195.87 27.6598C190.42 24.1939 183.166 24.8845 178.542 29.3096L151.278 55.3607C144.15 62.2423 133.378 64.3352 124.001 60.6582C114.624 56.9823 108.5 48.2646 108.495 38.5866V5.03834C108.686 2.20435 111.149 0 114.123 0C117.096 0 119.56 2.20435 119.75 5.03834V18.6314C126.668 14.2778 135.398 13.4817 143.056 16.5091C150.711 19.5343 156.295 25.9878 157.966 33.737L170.597 21.68C177.75 14.8629 188.498 12.8298 197.834 16.522C207.169 20.2178 213.258 28.9156 213.263 38.5643L213.309 38.5866ZM147.271 38.5866C147.271 33.2762 143.917 28.4888 138.779 26.458C133.638 24.4295 127.722 25.5552 123.793 29.3143C119.862 33.0722 118.693 38.7203 120.827 43.6261C122.962 48.5284 127.984 51.7212 133.546 51.7119C141.13 51.6989 147.271 45.8281 147.271 38.5866Z" fill="#1F32D6"/>
<path d="M237.549 56.8868H255.522C271.98 56.8868 283.385 45.94 283.385 31.8262V31.6885C283.385 17.5747 271.98 6.76563 255.522 6.76563H237.549V56.8868ZM255.522 11.1719C269.381 11.1719 278.188 20.3975 278.188 31.8262V31.9639C278.188 43.4615 269.381 52.4806 255.522 52.4806H242.602V11.1719H255.522ZM309.683 57.713C316.974 57.713 321.666 54.8902 325.563 50.8282L322.46 48.1432C319.284 51.3102 315.386 53.651 309.828 53.651C302.682 53.651 296.33 48.7628 295.535 40.2945H326.718C326.863 39.606 326.863 39.3306 326.863 38.6422C326.863 27.8331 320.078 19.2271 308.961 19.2271C298.423 19.2271 290.555 27.7642 290.555 38.4356V38.5733C290.555 50.002 299.289 57.713 309.683 57.713ZM295.535 36.5767C296.257 28.9346 301.671 23.2891 308.817 23.2891C317.046 23.2891 321.232 29.5543 321.81 36.5767H295.535ZM346.232 57.1622H350.418L367.453 20.1221H362.112L348.325 51.6544L334.683 20.1221H329.197L346.232 57.1622ZM389.06 57.713C396.35 57.713 401.042 54.8902 404.94 50.8282L401.836 48.1432C398.66 51.3102 394.762 53.651 389.204 53.651C382.058 53.651 375.706 48.7628 374.912 40.2945H406.095C406.239 39.606 406.239 39.3306 406.239 38.6422C406.239 27.8331 399.454 19.2271 388.338 19.2271C377.8 19.2271 369.932 27.7642 369.932 38.4356V38.5733C369.932 50.002 378.666 57.713 389.06 57.713ZM374.912 36.5767C375.634 28.9346 381.048 23.2891 388.194 23.2891C396.423 23.2891 400.609 29.5543 401.187 36.5767H374.912ZM414.853 56.8868H419.69V4.63135H414.853V56.8868ZM448.731 57.713C460.28 57.713 468.798 48.8316 468.798 38.5045V38.3668C468.798 27.9708 460.352 19.2271 448.875 19.2271C437.254 19.2271 428.809 28.1084 428.809 38.5045V38.6422C428.809 48.9693 437.182 57.713 448.731 57.713ZM448.875 53.5133C440.358 53.5133 433.861 46.835 433.861 38.5045V38.3668C433.861 30.1739 439.997 23.4268 448.731 23.4268C457.176 23.4268 463.673 30.1739 463.673 38.5045V38.6422C463.673 46.7662 457.537 53.5133 448.875 53.5133ZM496.684 53.4444C489.105 53.4444 481.959 47.4547 481.959 38.5733V38.4356C481.959 29.5543 489.105 23.4956 496.684 23.4956C504.336 23.4956 510.904 29.3477 510.904 38.5045V38.6422C510.904 47.9366 504.552 53.4444 496.684 53.4444ZM477.339 68.3156H482.176V49.4513C485.279 53.7887 490.043 57.713 497.478 57.713C506.718 57.713 516.029 50.5528 516.029 38.5045V38.3668C516.029 26.3184 506.718 19.2271 497.478 19.2271C490.116 19.2271 485.424 23.2203 482.176 27.8331V20.1221H477.339V68.3156ZM541.389 57.713C548.68 57.713 553.372 54.8902 557.269 50.8282L554.166 48.1432C550.99 51.3102 547.092 53.651 541.534 53.651C534.388 53.651 528.036 48.7628 527.242 40.2945H558.424C558.569 39.606 558.569 39.3306 558.569 38.6422C558.569 27.8331 551.784 19.2271 540.667 19.2271C530.129 19.2271 522.261 27.7642 522.261 38.4356V38.5733C522.261 50.002 530.995 57.713 541.389 57.713ZM527.242 36.5767C527.963 28.9346 533.377 23.2891 540.523 23.2891C548.752 23.2891 552.939 29.5543 553.516 36.5767H527.242ZM566.677 56.8868H571.514V42.0157C571.514 30.587 578.804 24.4595 587.466 24.4595H587.827V19.5025C580.392 19.2271 574.401 23.771 571.514 30.105V20.1221H566.677V56.8868ZM607.268 57.5753C614.847 57.5753 620.838 53.5133 620.838 46.6974V46.5597C620.838 40.0191 614.342 37.816 608.279 36.0948C602.937 34.649 597.956 33.2032 597.956 29.4166V29.2789C597.956 25.9053 601.132 23.4268 606.041 23.4268C609.867 23.4268 614.053 24.8726 617.662 27.0757L619.972 23.4956C616.074 20.9483 610.805 19.3648 606.185 19.3648C598.606 19.3648 593.265 23.6333 593.265 29.8296V29.9673C593.265 36.5767 600.05 38.5045 606.185 40.2257C611.382 41.6026 616.074 43.0484 616.074 47.0416V47.1793C616.074 51.0348 612.393 53.5133 607.485 53.5133C602.793 53.5133 598.173 51.8609 593.914 48.7628L591.316 52.2052C595.574 55.5099 601.71 57.5753 607.268 57.5753Z" fill="#6B6B6B"/>
</g>
</g>
<defs>
<clipPath id="clip0_5080_6284">
<rect width="621" height="75" fill="white"/>
</clipPath>
<clipPath id="clip1_5080_6284">
<rect width="621" height="66" fill="white"/>
</clipPath>
</defs>
</svg>
