<svg width="449" height="57" viewBox="0 0 449 57" fill="none" xmlns="http://www.w3.org/2000/svg">
<g clip-path="url(#clip0_483_410)">
<path fill-rule="evenodd" clip-rule="evenodd" d="M86.4809 33.3248C86.485 43.2354 79.4301 51.7466 69.6867 53.5896C59.9404 55.4316 50.2619 50.0849 46.6433 40.8568L54.5068 32.9987V33.3248C54.4987 38.7434 58.3251 43.4116 63.6411 44.4749C68.9592 45.5372 74.2873 42.6967 76.3657 37.6923C78.4441 32.6878 76.693 26.9118 72.1846 23.9012C67.6753 20.8886 61.6671 21.48 57.8326 25.3128L35.2229 47.8885C29.3242 53.7871 20.4493 55.5531 12.7388 52.3633C5.02721 49.1715 0 41.6537 0 33.3157C0 24.9766 5.02721 17.4588 12.7388 14.268C20.4493 11.0782 29.3242 12.8432 35.2229 18.7429C36.3902 19.9205 36.8422 21.6299 36.4044 23.2288C35.9687 24.8288 34.7111 26.0743 33.108 26.4946C31.5029 26.9168 29.7954 26.452 28.628 25.2743C24.1946 20.8593 17.0191 20.8694 12.5969 25.2956C8.17263 29.7208 8.17263 36.8913 12.5969 41.3155C17.0191 45.7427 24.1946 45.7518 28.628 41.3368L51.2195 18.7429C57.1203 12.8422 65.9972 11.0762 73.7087 14.269C81.4203 17.4609 86.4465 24.9827 86.4424 33.3248H86.4809ZM176 33.3248C176.027 43.2547 168.967 51.7942 159.205 53.6393C149.439 55.4833 139.746 50.1123 136.144 40.8568L144.008 32.9987V33.3248C144.017 38.7242 147.841 43.3641 153.14 44.4071C158.441 45.4521 163.741 42.6107 165.801 37.6214C167.861 32.6291 166.107 26.8804 161.611 23.8881C157.114 20.8947 151.129 21.4911 147.314 25.3128L124.819 47.8115C118.937 53.7547 110.049 55.5622 102.312 52.3866C94.5755 49.212 89.523 41.6831 89.5189 33.3248V4.35129C89.676 1.90375 91.7088 0 94.1621 0C96.6154 0 98.6482 1.90375 98.8052 4.35129V16.0908C104.513 12.3309 111.716 11.6433 118.034 14.2579C124.351 16.8705 128.958 22.444 130.336 29.1365L140.759 18.7236C146.66 12.8362 155.528 11.0802 163.232 14.269C170.934 17.4609 175.958 24.9726 175.962 33.3056L176 33.3248ZM121.512 33.3248C121.512 28.7386 118.745 24.604 114.506 22.8501C110.264 21.0982 105.383 22.0704 102.141 25.3169C98.8974 28.5624 97.9327 33.4402 99.6939 37.6771C101.455 41.9109 105.599 44.6683 110.188 44.6602C116.446 44.6491 121.512 39.5788 121.512 33.3248Z" fill="#1F32D6"/>
<path d="M196 49.1038H207.864C218.727 49.1038 226.255 41.5405 226.255 31.7892V31.6941C226.255 21.9427 218.727 14.4746 207.864 14.4746H196V49.1038ZM207.864 17.5189C217.012 17.5189 222.825 23.893 222.825 31.7892V31.8843C222.825 39.8281 217.012 46.0595 207.864 46.0595H199.335V17.5189H207.864ZM243.614 49.6746C248.426 49.6746 251.523 47.7243 254.096 44.9178L252.048 43.0627C249.951 45.2508 247.378 46.8681 243.709 46.8681C238.993 46.8681 234.8 43.4908 234.276 37.64H254.859C254.954 37.1643 254.954 36.9741 254.954 36.4984C254.954 29.0303 250.475 23.0843 243.138 23.0843C236.181 23.0843 230.988 28.9827 230.988 36.3557V36.4508C230.988 44.347 236.753 49.6746 243.614 49.6746ZM234.276 35.0714C234.752 29.7914 238.325 25.8908 243.042 25.8908C248.474 25.8908 251.238 30.2195 251.619 35.0714H234.276ZM267.739 49.2941H270.502L281.747 23.7027H278.221L269.121 45.4886L260.116 23.7027H256.494L267.739 49.2941ZM296.009 49.6746C300.821 49.6746 303.918 47.7243 306.491 44.9178L304.442 43.0627C302.346 45.2508 299.773 46.8681 296.104 46.8681C291.387 46.8681 287.194 43.4908 286.67 37.64H307.253C307.349 37.1643 307.349 36.9741 307.349 36.4984C307.349 29.0303 302.87 23.0843 295.532 23.0843C288.576 23.0843 283.383 28.9827 283.383 36.3557V36.4508C283.383 44.347 289.148 49.6746 296.009 49.6746ZM286.67 35.0714C287.147 29.7914 290.72 25.8908 295.437 25.8908C300.869 25.8908 303.632 30.2195 304.013 35.0714H286.67ZM313.034 49.1038H316.227V13H313.034V49.1038ZM335.396 49.6746C343.02 49.6746 348.642 43.5384 348.642 36.4032V36.3081C348.642 29.1254 343.067 23.0843 335.491 23.0843C327.82 23.0843 322.246 29.2205 322.246 36.4032V36.4984C322.246 43.6335 327.773 49.6746 335.396 49.6746ZM335.491 46.773C329.869 46.773 325.581 42.1589 325.581 36.4032V36.3081C325.581 30.6476 329.631 25.9859 335.396 25.9859C340.971 25.9859 345.259 30.6476 345.259 36.4032V36.4984C345.259 42.1114 341.209 46.773 335.491 46.773ZM367.049 46.7254C362.046 46.7254 357.329 42.587 357.329 36.4508V36.3557C357.329 30.2195 362.046 26.0335 367.049 26.0335C372.099 26.0335 376.435 30.0768 376.435 36.4032V36.4984C376.435 42.92 372.242 46.7254 367.049 46.7254ZM354.28 57H357.472V43.9665C359.521 46.9632 362.666 49.6746 367.573 49.6746C373.672 49.6746 379.818 44.7276 379.818 36.4032V36.3081C379.818 27.9838 373.672 23.0843 367.573 23.0843C362.713 23.0843 359.616 25.8432 357.472 29.0303V23.7027H354.28V57ZM396.558 49.6746C401.37 49.6746 404.467 47.7243 407.04 44.9178L404.991 43.0627C402.895 45.2508 400.322 46.8681 396.653 46.8681C391.936 46.8681 387.743 43.4908 387.219 37.64H407.802C407.897 37.1643 407.897 36.9741 407.897 36.4984C407.897 29.0303 403.419 23.0843 396.081 23.0843C389.125 23.0843 383.932 28.9827 383.932 36.3557V36.4508C383.932 44.347 389.697 49.6746 396.558 49.6746ZM387.219 35.0714C387.696 29.7914 391.269 25.8908 395.986 25.8908C401.418 25.8908 404.181 30.2195 404.562 35.0714H387.219ZM413.25 49.1038H416.442V38.8292C416.442 30.933 421.254 26.6995 426.972 26.6995H427.21V23.2746C422.302 23.0843 418.348 26.2238 416.442 30.6V23.7027H413.25V49.1038ZM440.043 49.5795C445.045 49.5795 449 46.773 449 42.0638V41.9686C449 37.4497 444.712 35.9276 440.71 34.7384C437.184 33.7395 433.896 32.7405 433.896 30.1243V30.0292C433.896 27.6984 435.993 25.9859 439.233 25.9859C441.758 25.9859 444.521 26.9849 446.904 28.507L448.428 26.0335C445.855 24.2735 442.377 23.1795 439.328 23.1795C434.325 23.1795 430.799 26.1286 430.799 30.4097V30.5049C430.799 35.0714 435.278 36.4032 439.328 37.5924C442.758 38.5438 445.855 39.5427 445.855 42.3016V42.3968C445.855 45.0605 443.425 46.773 440.186 46.773C437.089 46.773 434.039 45.6314 431.228 43.4908L429.513 45.8692C432.324 48.1524 436.374 49.5795 440.043 49.5795Z" fill="#6B6B6B"/>
</g>
<defs>
<clipPath id="clip0_483_410">
<rect width="449" height="57" fill="white"/>
</clipPath>
</defs>
</svg>
