<svg width="545" height="470" viewBox="0 0 545 470" fill="none" xmlns="http://www.w3.org/2000/svg">
<g clip-path="url(#clip0_120_2)">
<rect width="545" height="470" fill="white"/>
<rect x="225" width="320" height="208" fill="white"/>
<rect x="225" width="320" height="208" stroke="#1F32D6" stroke-width="2"/>
<path d="M316.22 95.52H333.8V97.7H316.22V95.52ZM323.68 94H326.14V96.82H323.68V94ZM316.88 99.26H332.28V101.34H319.16V112.76H316.88V99.26ZM331.04 99.26H333.34V110.2C333.34 110.773 333.267 111.233 333.12 111.58C332.987 111.927 332.727 112.2 332.34 112.4C331.94 112.573 331.453 112.68 330.88 112.72C330.307 112.773 329.627 112.8 328.84 112.8C328.8 112.587 328.74 112.34 328.66 112.06C328.58 111.78 328.487 111.5 328.38 111.22C328.273 110.953 328.16 110.72 328.04 110.52C328.573 110.533 329.087 110.547 329.58 110.56C330.087 110.56 330.427 110.56 330.6 110.56C330.76 110.56 330.873 110.533 330.94 110.48C331.007 110.413 331.04 110.307 331.04 110.16V99.26ZM321.92 101.08H324.04C324 101.867 323.867 102.553 323.64 103.14C323.413 103.727 323.02 104.213 322.46 104.6C321.9 104.987 321.087 105.307 320.02 105.56C319.94 105.293 319.787 104.993 319.56 104.66C319.347 104.327 319.14 104.067 318.94 103.88C319.767 103.733 320.387 103.547 320.8 103.32C321.213 103.08 321.493 102.78 321.64 102.42C321.8 102.06 321.893 101.613 321.92 101.08ZM325.64 101.06H327.7V102.6C327.7 102.813 327.727 102.947 327.78 103C327.833 103.04 327.947 103.06 328.12 103.06C328.16 103.06 328.227 103.06 328.32 103.06C328.413 103.06 328.513 103.06 328.62 103.06C328.727 103.06 328.827 103.06 328.92 103.06C329.027 103.06 329.1 103.06 329.14 103.06C329.26 103.06 329.347 103.04 329.4 103C329.467 102.947 329.513 102.84 329.54 102.68C329.58 102.52 329.607 102.28 329.62 101.96C329.807 102.093 330.073 102.227 330.42 102.36C330.78 102.48 331.093 102.573 331.36 102.64C331.267 103.493 331.073 104.067 330.78 104.36C330.487 104.653 330.033 104.8 329.42 104.8C329.327 104.8 329.207 104.8 329.06 104.8C328.913 104.8 328.753 104.8 328.58 104.8C328.42 104.8 328.267 104.8 328.12 104.8C327.987 104.8 327.88 104.8 327.8 104.8C327.213 104.8 326.76 104.733 326.44 104.6C326.133 104.453 325.92 104.227 325.8 103.92C325.693 103.6 325.64 103.167 325.64 102.62V101.06ZM321.12 105.54H323.26V111.86H321.12V105.54ZM322.44 105.54H329.02V110.78H322.44V109H326.86V107.32H322.44V105.54ZM319.8 97.66L322.18 97.26C322.367 97.5667 322.547 97.92 322.72 98.32C322.893 98.7067 323.02 99.0467 323.1 99.34L320.6 99.84C320.547 99.5467 320.44 99.1933 320.28 98.78C320.133 98.3667 319.973 97.9933 319.8 97.66ZM327.62 97.24L330.28 97.64C330.04 98.0667 329.813 98.4667 329.6 98.84C329.4 99.2 329.207 99.5067 329.02 99.76L326.64 99.36C326.813 99.0533 326.993 98.7 327.18 98.3C327.367 97.9 327.513 97.5467 327.62 97.24ZM337.88 97.02H340.4V101.56C340.4 102.4 340.367 103.32 340.3 104.32C340.233 105.307 340.1 106.32 339.9 107.36C339.713 108.387 339.433 109.38 339.06 110.34C338.7 111.3 338.227 112.167 337.64 112.94C337.493 112.793 337.287 112.62 337.02 112.42C336.767 112.233 336.5 112.053 336.22 111.88C335.953 111.707 335.72 111.573 335.52 111.48C336.053 110.773 336.48 110 336.8 109.16C337.12 108.307 337.353 107.44 337.5 106.56C337.66 105.667 337.76 104.793 337.8 103.94C337.853 103.087 337.88 102.293 337.88 101.56V97.02ZM343.38 94.5L345.78 93.9C345.993 94.3267 346.207 94.8 346.42 95.32C346.633 95.8267 346.8 96.28 346.92 96.68L344.46 97.38C344.353 96.9933 344.193 96.5267 343.98 95.98C343.78 95.4333 343.58 94.94 343.38 94.5ZM339.46 97.02H352.34V105.68H349.88V99.26H339.46V97.02ZM339.52 102.4H351.1V104.64H339.52V102.4ZM369.24 96.02H371.76V109.76C371.76 110.48 371.667 111.033 371.48 111.42C371.293 111.82 370.953 112.12 370.46 112.32C369.98 112.52 369.367 112.64 368.62 112.68C367.873 112.733 366.987 112.76 365.96 112.76C365.907 112.52 365.827 112.24 365.72 111.92C365.613 111.613 365.487 111.307 365.34 111C365.207 110.693 365.073 110.433 364.94 110.22C365.433 110.233 365.927 110.247 366.42 110.26C366.927 110.273 367.38 110.28 367.78 110.28C368.18 110.28 368.46 110.28 368.62 110.28C368.847 110.28 369.007 110.24 369.1 110.16C369.193 110.08 369.24 109.933 369.24 109.72V96.02ZM357.82 100.02H360.14V109.34H357.82V100.02ZM358.8 100.02H366.34V107.8H358.8V105.5H363.98V102.3H358.8V100.02ZM355.96 95.34H374.08V97.78H355.96V95.34ZM376.32 107.6C376.28 107.44 376.213 107.227 376.12 106.96C376.027 106.68 375.927 106.387 375.82 106.08C375.713 105.773 375.613 105.513 375.52 105.3C375.8 105.247 376.067 105.113 376.32 104.9C376.573 104.687 376.867 104.4 377.2 104.04C377.387 103.867 377.647 103.58 377.98 103.18C378.313 102.767 378.68 102.28 379.08 101.72C379.493 101.16 379.907 100.553 380.32 99.9C380.733 99.2467 381.113 98.58 381.46 97.9L383.58 99.28C382.793 100.573 381.893 101.84 380.88 103.08C379.88 104.32 378.867 105.42 377.84 106.38V106.42C377.84 106.42 377.76 106.46 377.6 106.54C377.453 106.62 377.28 106.727 377.08 106.86C376.88 106.98 376.7 107.107 376.54 107.24C376.393 107.373 376.32 107.493 376.32 107.6ZM376.32 107.6L376.18 105.66L377.26 104.9L383.12 104.02C383.107 104.34 383.113 104.707 383.14 105.12C383.167 105.52 383.2 105.847 383.24 106.1C381.88 106.34 380.773 106.54 379.92 106.7C379.08 106.86 378.427 106.993 377.96 107.1C377.493 107.207 377.133 107.3 376.88 107.38C376.64 107.46 376.453 107.533 376.32 107.6ZM376.14 102.62C376.1 102.46 376.033 102.24 375.94 101.96C375.847 101.667 375.74 101.373 375.62 101.08C375.513 100.773 375.413 100.507 375.32 100.28C375.533 100.227 375.74 100.1 375.94 99.9C376.14 99.7 376.34 99.4533 376.54 99.16C376.66 99 376.82 98.7467 377.02 98.4C377.233 98.0533 377.46 97.6467 377.7 97.18C377.953 96.7133 378.2 96.2067 378.44 95.66C378.68 95.1 378.893 94.54 379.08 93.98L381.56 95C381.213 95.76 380.82 96.52 380.38 97.28C379.953 98.04 379.5 98.7667 379.02 99.46C378.553 100.153 378.087 100.773 377.62 101.32V101.4C377.62 101.4 377.547 101.44 377.4 101.52C377.253 101.6 377.08 101.707 376.88 101.84C376.68 101.973 376.507 102.113 376.36 102.26C376.213 102.393 376.14 102.513 376.14 102.62ZM376.14 102.62L376.08 100.9L377.12 100.22L381.38 99.92C381.313 100.213 381.253 100.553 381.2 100.94C381.16 101.327 381.14 101.647 381.14 101.9C380.193 101.98 379.42 102.06 378.82 102.14C378.22 102.207 377.74 102.267 377.38 102.32C377.033 102.373 376.767 102.427 376.58 102.48C376.393 102.52 376.247 102.567 376.14 102.62ZM375.5 109.54C376.18 109.433 376.94 109.313 377.78 109.18C378.62 109.033 379.513 108.873 380.46 108.7C381.407 108.527 382.34 108.353 383.26 108.18L383.46 110.42C382.153 110.713 380.833 110.993 379.5 111.26C378.167 111.527 376.967 111.773 375.9 112L375.5 109.54ZM383.22 96.46H394.12V98.76H383.22V96.46ZM383.76 100.96H393.64V103.24H383.76V100.96ZM385.54 109.76H392.02V111.92H385.54V109.76ZM387.44 93.98H389.94V102.12H387.44V93.98ZM384.24 104.72H393.28V112.7H390.82V106.88H386.58V112.78H384.24V104.72ZM395.96 107.62H414.08V109.54H395.96V107.62ZM400.7 102.16V102.9H409.62V102.16H400.7ZM400.7 104.26V105H409.62V104.26H400.7ZM400.7 100.12V100.82H409.62V100.12H400.7ZM398.28 98.68H412.14V106.42H398.28V98.68ZM407.36 106.04H409.86V112.76H407.36V106.04ZM398.4 95.32H404.72V97.2H398.4V95.32ZM406.36 95.32H414.02V97.2H406.36V95.32ZM398.5 93.84L400.72 94.46C400.32 95.3533 399.807 96.22 399.18 97.06C398.567 97.9 397.953 98.6 397.34 99.16C397.207 99.0267 397.02 98.88 396.78 98.72C396.54 98.5467 396.293 98.3867 396.04 98.24C395.8 98.08 395.587 97.9467 395.4 97.84C396.027 97.36 396.613 96.7667 397.16 96.06C397.72 95.34 398.167 94.6 398.5 93.84ZM406.64 93.84L408.92 94.4C408.573 95.28 408.12 96.12 407.56 96.92C407 97.72 406.433 98.3867 405.86 98.92C405.7 98.8 405.487 98.6667 405.22 98.52C404.967 98.3733 404.707 98.2333 404.44 98.1C404.187 97.9667 403.96 97.86 403.76 97.78C404.373 97.3133 404.933 96.7267 405.44 96.02C405.96 95.3133 406.36 94.5867 406.64 93.84ZM399.22 96.78L401.18 96.12C401.433 96.4267 401.687 96.78 401.94 97.18C402.193 97.5667 402.373 97.9067 402.48 98.2L400.4 98.94C400.307 98.6467 400.14 98.3 399.9 97.9C399.673 97.4867 399.447 97.1133 399.22 96.78ZM408.02 96.76L409.94 95.96C410.247 96.2667 410.573 96.62 410.92 97.02C411.267 97.42 411.533 97.7733 411.72 98.08L409.68 98.98C409.533 98.6733 409.293 98.3133 408.96 97.9C408.64 97.4733 408.327 97.0933 408.02 96.76ZM400.74 106.02H403.16V107.96C403.16 108.427 403.08 108.893 402.92 109.36C402.76 109.813 402.48 110.247 402.08 110.66C401.693 111.073 401.147 111.46 400.44 111.82C399.733 112.193 398.827 112.52 397.72 112.8C397.573 112.547 397.353 112.24 397.06 111.88C396.767 111.533 396.487 111.253 396.22 111.04C397.193 110.853 397.973 110.64 398.56 110.4C399.16 110.147 399.613 109.88 399.92 109.6C400.24 109.307 400.453 109.02 400.56 108.74C400.68 108.447 400.74 108.167 400.74 107.9V106.02ZM424.92 96.28C424.36 97 423.66 97.74 422.82 98.5C421.98 99.2467 421.053 99.96 420.04 100.64C419.04 101.32 418.007 101.92 416.94 102.44C416.793 102.16 416.573 101.827 416.28 101.44C416 101.04 415.733 100.72 415.48 100.48C416.6 99.9867 417.68 99.38 418.72 98.66C419.773 97.9267 420.72 97.16 421.56 96.36C422.4 95.56 423.08 94.7933 423.6 94.06H426.04C426.587 94.74 427.193 95.3933 427.86 96.02C428.527 96.6467 429.227 97.2267 429.96 97.76C430.693 98.2933 431.453 98.7733 432.24 99.2C433.027 99.6133 433.813 99.9733 434.6 100.28C434.307 100.573 434.02 100.913 433.74 101.3C433.473 101.687 433.233 102.06 433.02 102.42C432.047 101.927 431.047 101.347 430.02 100.68C428.993 100 428.033 99.28 427.14 98.52C426.26 97.76 425.52 97.0133 424.92 96.28ZM419.74 100.04H430.06V102.2H419.74V100.04ZM417.1 104.04H433.14V106.28H417.1V104.04ZM427.58 108.1L429.56 106.86C430.053 107.233 430.587 107.653 431.16 108.12C431.733 108.573 432.28 109.033 432.8 109.5C433.32 109.953 433.74 110.367 434.06 110.74L431.94 112.16C431.647 111.787 431.253 111.367 430.76 110.9C430.28 110.42 429.76 109.933 429.2 109.44C428.64 108.947 428.1 108.5 427.58 108.1ZM419.8 107L422.06 107.8C421.66 108.347 421.193 108.893 420.66 109.44C420.14 109.987 419.593 110.493 419.02 110.96C418.46 111.427 417.907 111.84 417.36 112.2C417.227 112.04 417.053 111.853 416.84 111.64C416.627 111.44 416.4 111.24 416.16 111.04C415.933 110.84 415.727 110.68 415.54 110.56C416.353 110.133 417.147 109.607 417.92 108.98C418.693 108.34 419.32 107.68 419.8 107ZM423.64 100.94H426.2V110.2C426.2 110.8 426.12 111.267 425.96 111.6C425.8 111.933 425.513 112.2 425.1 112.4C424.7 112.573 424.22 112.687 423.66 112.74C423.1 112.793 422.453 112.82 421.72 112.82C421.68 112.593 421.607 112.34 421.5 112.06C421.393 111.78 421.273 111.5 421.14 111.22C421.007 110.94 420.88 110.7 420.76 110.5C421.093 110.513 421.427 110.527 421.76 110.54C422.093 110.54 422.393 110.54 422.66 110.54C422.927 110.54 423.113 110.54 423.22 110.54C423.38 110.527 423.487 110.5 423.54 110.46C423.607 110.407 423.64 110.307 423.64 110.16V100.94ZM445.32 95.14H454.3V97.22H445.32V95.14ZM448.82 96.42L450.86 96.88C450.647 97.44 450.433 97.98 450.22 98.5C450.007 99.02 449.807 99.4733 449.62 99.86L447.8 99.4C447.92 99.12 448.04 98.8067 448.16 98.46C448.293 98.1133 448.42 97.76 448.54 97.4C448.66 97.04 448.753 96.7133 448.82 96.42ZM445.48 98.92H453.68V108.24H451.62V100.74H447.46V108.32H445.48V98.92ZM448.6 101.46H450.62C450.593 103.06 450.52 104.473 450.4 105.7C450.293 106.927 450.06 108 449.7 108.92C449.353 109.827 448.807 110.607 448.06 111.26C447.327 111.913 446.333 112.46 445.08 112.9C444.973 112.633 444.8 112.327 444.56 111.98C444.333 111.647 444.113 111.387 443.9 111.2C445.02 110.827 445.893 110.38 446.52 109.86C447.147 109.327 447.6 108.68 447.88 107.92C448.173 107.16 448.36 106.253 448.44 105.2C448.52 104.133 448.573 102.887 448.6 101.46ZM449.82 109.8L451.04 108.3C451.427 108.58 451.847 108.887 452.3 109.22C452.767 109.553 453.207 109.887 453.62 110.22C454.033 110.54 454.373 110.833 454.64 111.1L453.36 112.78C453.107 112.5 452.773 112.18 452.36 111.82C451.96 111.473 451.533 111.127 451.08 110.78C450.64 110.42 450.22 110.093 449.82 109.8ZM435.86 95.96H445V99.48H442.84V97.88H437.92V99.48H435.86V95.96ZM437.3 106.42H444.12V112.62H441.94V108.28H439.38V112.62H437.3V106.42ZM437.98 110.24H442.78V112.1H437.98V110.24ZM438.86 98.16L440.96 98.56C440.493 99.4267 439.913 100.253 439.22 101.04C438.54 101.827 437.7 102.553 436.7 103.22C436.607 103.047 436.48 102.867 436.32 102.68C436.16 102.48 435.993 102.287 435.82 102.1C435.66 101.913 435.507 101.773 435.36 101.68C436.2 101.187 436.913 100.627 437.5 100C438.1 99.36 438.553 98.7467 438.86 98.16ZM439.64 99.44H442.96V101.22H438.74L439.64 99.44ZM442.62 99.44H443.1L443.52 99.38L444.8 100.24C444.28 101.373 443.58 102.387 442.7 103.28C441.833 104.173 440.853 104.94 439.76 105.58C438.68 106.22 437.553 106.727 436.38 107.1C436.34 106.887 436.273 106.633 436.18 106.34C436.087 106.047 435.98 105.767 435.86 105.5C435.753 105.22 435.647 105 435.54 104.84C436.593 104.573 437.587 104.2 438.52 103.72C439.453 103.24 440.28 102.673 441 102.02C441.72 101.353 442.26 100.613 442.62 99.8V99.44ZM438.84 94.54L441.12 94.06C441.307 94.46 441.513 94.9 441.74 95.38C441.98 95.86 442.16 96.26 442.28 96.58L439.9 97.16C439.793 96.8267 439.64 96.4133 439.44 95.92C439.24 95.4133 439.04 94.9533 438.84 94.54ZM437.64 103.12L439.2 101.7C439.667 101.927 440.187 102.18 440.76 102.46C441.333 102.727 441.907 103.007 442.48 103.3C443.067 103.58 443.613 103.86 444.12 104.14C444.64 104.42 445.087 104.673 445.46 104.9L443.8 106.52C443.467 106.293 443.047 106.04 442.54 105.76C442.047 105.467 441.513 105.167 440.94 104.86C440.38 104.553 439.813 104.247 439.24 103.94C438.667 103.633 438.133 103.36 437.64 103.12Z" fill="#1F32D6"/>
<rect x="225" y="208" width="320" height="62" fill="#1F32D6" fill-opacity="0.11"/>
<rect x="225" y="208" width="320" height="62" stroke="#1F32D6" stroke-width="2"/>
<path d="M306.22 229.52H323.8V231.7H306.22V229.52ZM313.68 228H316.14V230.82H313.68V228ZM306.88 233.26H322.28V235.34H309.16V246.76H306.88V233.26ZM321.04 233.26H323.34V244.2C323.34 244.773 323.267 245.233 323.12 245.58C322.987 245.927 322.727 246.2 322.34 246.4C321.94 246.573 321.453 246.68 320.88 246.72C320.307 246.773 319.627 246.8 318.84 246.8C318.8 246.587 318.74 246.34 318.66 246.06C318.58 245.78 318.487 245.5 318.38 245.22C318.273 244.953 318.16 244.72 318.04 244.52C318.573 244.533 319.087 244.547 319.58 244.56C320.087 244.56 320.427 244.56 320.6 244.56C320.76 244.56 320.873 244.533 320.94 244.48C321.007 244.413 321.04 244.307 321.04 244.16V233.26ZM311.92 235.08H314.04C314 235.867 313.867 236.553 313.64 237.14C313.413 237.727 313.02 238.213 312.46 238.6C311.9 238.987 311.087 239.307 310.02 239.56C309.94 239.293 309.787 238.993 309.56 238.66C309.347 238.327 309.14 238.067 308.94 237.88C309.767 237.733 310.387 237.547 310.8 237.32C311.213 237.08 311.493 236.78 311.64 236.42C311.8 236.06 311.893 235.613 311.92 235.08ZM315.64 235.06H317.7V236.6C317.7 236.813 317.727 236.947 317.78 237C317.833 237.04 317.947 237.06 318.12 237.06C318.16 237.06 318.227 237.06 318.32 237.06C318.413 237.06 318.513 237.06 318.62 237.06C318.727 237.06 318.827 237.06 318.92 237.06C319.027 237.06 319.1 237.06 319.14 237.06C319.26 237.06 319.347 237.04 319.4 237C319.467 236.947 319.513 236.84 319.54 236.68C319.58 236.52 319.607 236.28 319.62 235.96C319.807 236.093 320.073 236.227 320.42 236.36C320.78 236.48 321.093 236.573 321.36 236.64C321.267 237.493 321.073 238.067 320.78 238.36C320.487 238.653 320.033 238.8 319.42 238.8C319.327 238.8 319.207 238.8 319.06 238.8C318.913 238.8 318.753 238.8 318.58 238.8C318.42 238.8 318.267 238.8 318.12 238.8C317.987 238.8 317.88 238.8 317.8 238.8C317.213 238.8 316.76 238.733 316.44 238.6C316.133 238.453 315.92 238.227 315.8 237.92C315.693 237.6 315.64 237.167 315.64 236.62V235.06ZM311.12 239.54H313.26V245.86H311.12V239.54ZM312.44 239.54H319.02V244.78H312.44V243H316.86V241.32H312.44V239.54ZM309.8 231.66L312.18 231.26C312.367 231.567 312.547 231.92 312.72 232.32C312.893 232.707 313.02 233.047 313.1 233.34L310.6 233.84C310.547 233.547 310.44 233.193 310.28 232.78C310.133 232.367 309.973 231.993 309.8 231.66ZM317.62 231.24L320.28 231.64C320.04 232.067 319.813 232.467 319.6 232.84C319.4 233.2 319.207 233.507 319.02 233.76L316.64 233.36C316.813 233.053 316.993 232.7 317.18 232.3C317.367 231.9 317.513 231.547 317.62 231.24ZM327.88 231.02H330.4V235.56C330.4 236.4 330.367 237.32 330.3 238.32C330.233 239.307 330.1 240.32 329.9 241.36C329.713 242.387 329.433 243.38 329.06 244.34C328.7 245.3 328.227 246.167 327.64 246.94C327.493 246.793 327.287 246.62 327.02 246.42C326.767 246.233 326.5 246.053 326.22 245.88C325.953 245.707 325.72 245.573 325.52 245.48C326.053 244.773 326.48 244 326.8 243.16C327.12 242.307 327.353 241.44 327.5 240.56C327.66 239.667 327.76 238.793 327.8 237.94C327.853 237.087 327.88 236.293 327.88 235.56V231.02ZM333.38 228.5L335.78 227.9C335.993 228.327 336.207 228.8 336.42 229.32C336.633 229.827 336.8 230.28 336.92 230.68L334.46 231.38C334.353 230.993 334.193 230.527 333.98 229.98C333.78 229.433 333.58 228.94 333.38 228.5ZM329.46 231.02H342.34V239.68H339.88V233.26H329.46V231.02ZM329.52 236.4H341.1V238.64H329.52V236.4ZM346.3 229.34H363.74V231.8H346.3V229.34ZM355.96 236.06L357.82 234.5C358.353 234.887 358.927 235.313 359.54 235.78C360.167 236.233 360.787 236.707 361.4 237.2C362.027 237.693 362.607 238.18 363.14 238.66C363.673 239.127 364.127 239.553 364.5 239.94L362.46 241.8C362.127 241.4 361.7 240.96 361.18 240.48C360.673 239.987 360.12 239.48 359.52 238.96C358.933 238.44 358.327 237.933 357.7 237.44C357.087 236.947 356.507 236.487 355.96 236.06ZM355.16 230.26L357.82 231.2C357.06 232.6 356.153 233.967 355.1 235.3C354.06 236.633 352.887 237.867 351.58 239C350.273 240.12 348.853 241.08 347.32 241.88C347.2 241.667 347.04 241.427 346.84 241.16C346.64 240.893 346.433 240.633 346.22 240.38C346.02 240.113 345.833 239.887 345.66 239.7C346.74 239.207 347.76 238.607 348.72 237.9C349.68 237.18 350.567 236.4 351.38 235.56C352.207 234.72 352.933 233.853 353.56 232.96C354.2 232.053 354.733 231.153 355.16 230.26ZM353.7 235.1L356.32 232.48V246.76H353.7V235.1ZM379.24 230.02H381.76V243.76C381.76 244.48 381.667 245.033 381.48 245.42C381.293 245.82 380.953 246.12 380.46 246.32C379.98 246.52 379.367 246.64 378.62 246.68C377.873 246.733 376.987 246.76 375.96 246.76C375.907 246.52 375.827 246.24 375.72 245.92C375.613 245.613 375.487 245.307 375.34 245C375.207 244.693 375.073 244.433 374.94 244.22C375.433 244.233 375.927 244.247 376.42 244.26C376.927 244.273 377.38 244.28 377.78 244.28C378.18 244.28 378.46 244.28 378.62 244.28C378.847 244.28 379.007 244.24 379.1 244.16C379.193 244.08 379.24 243.933 379.24 243.72V230.02ZM367.82 234.02H370.14V243.34H367.82V234.02ZM368.8 234.02H376.34V241.8H368.8V239.5H373.98V236.3H368.8V234.02ZM365.96 229.34H384.08V231.78H365.96V229.34ZM386.32 241.6C386.28 241.44 386.213 241.227 386.12 240.96C386.027 240.68 385.927 240.387 385.82 240.08C385.713 239.773 385.613 239.513 385.52 239.3C385.8 239.247 386.067 239.113 386.32 238.9C386.573 238.687 386.867 238.4 387.2 238.04C387.387 237.867 387.647 237.58 387.98 237.18C388.313 236.767 388.68 236.28 389.08 235.72C389.493 235.16 389.907 234.553 390.32 233.9C390.733 233.247 391.113 232.58 391.46 231.9L393.58 233.28C392.793 234.573 391.893 235.84 390.88 237.08C389.88 238.32 388.867 239.42 387.84 240.38V240.42C387.84 240.42 387.76 240.46 387.6 240.54C387.453 240.62 387.28 240.727 387.08 240.86C386.88 240.98 386.7 241.107 386.54 241.24C386.393 241.373 386.32 241.493 386.32 241.6ZM386.32 241.6L386.18 239.66L387.26 238.9L393.12 238.02C393.107 238.34 393.113 238.707 393.14 239.12C393.167 239.52 393.2 239.847 393.24 240.1C391.88 240.34 390.773 240.54 389.92 240.7C389.08 240.86 388.427 240.993 387.96 241.1C387.493 241.207 387.133 241.3 386.88 241.38C386.64 241.46 386.453 241.533 386.32 241.6ZM386.14 236.62C386.1 236.46 386.033 236.24 385.94 235.96C385.847 235.667 385.74 235.373 385.62 235.08C385.513 234.773 385.413 234.507 385.32 234.28C385.533 234.227 385.74 234.1 385.94 233.9C386.14 233.7 386.34 233.453 386.54 233.16C386.66 233 386.82 232.747 387.02 232.4C387.233 232.053 387.46 231.647 387.7 231.18C387.953 230.713 388.2 230.207 388.44 229.66C388.68 229.1 388.893 228.54 389.08 227.98L391.56 229C391.213 229.76 390.82 230.52 390.38 231.28C389.953 232.04 389.5 232.767 389.02 233.46C388.553 234.153 388.087 234.773 387.62 235.32V235.4C387.62 235.4 387.547 235.44 387.4 235.52C387.253 235.6 387.08 235.707 386.88 235.84C386.68 235.973 386.507 236.113 386.36 236.26C386.213 236.393 386.14 236.513 386.14 236.62ZM386.14 236.62L386.08 234.9L387.12 234.22L391.38 233.92C391.313 234.213 391.253 234.553 391.2 234.94C391.16 235.327 391.14 235.647 391.14 235.9C390.193 235.98 389.42 236.06 388.82 236.14C388.22 236.207 387.74 236.267 387.38 236.32C387.033 236.373 386.767 236.427 386.58 236.48C386.393 236.52 386.247 236.567 386.14 236.62ZM385.5 243.54C386.18 243.433 386.94 243.313 387.78 243.18C388.62 243.033 389.513 242.873 390.46 242.7C391.407 242.527 392.34 242.353 393.26 242.18L393.46 244.42C392.153 244.713 390.833 244.993 389.5 245.26C388.167 245.527 386.967 245.773 385.9 246L385.5 243.54ZM393.22 230.46H404.12V232.76H393.22V230.46ZM393.76 234.96H403.64V237.24H393.76V234.96ZM395.54 243.76H402.02V245.92H395.54V243.76ZM397.44 227.98H399.94V236.12H397.44V227.98ZM394.24 238.72H403.28V246.7H400.82V240.88H396.58V246.78H394.24V238.72ZM405.96 241.62H424.08V243.54H405.96V241.62ZM410.7 236.16V236.9H419.62V236.16H410.7ZM410.7 238.26V239H419.62V238.26H410.7ZM410.7 234.12V234.82H419.62V234.12H410.7ZM408.28 232.68H422.14V240.42H408.28V232.68ZM417.36 240.04H419.86V246.76H417.36V240.04ZM408.4 229.32H414.72V231.2H408.4V229.32ZM416.36 229.32H424.02V231.2H416.36V229.32ZM408.5 227.84L410.72 228.46C410.32 229.353 409.807 230.22 409.18 231.06C408.567 231.9 407.953 232.6 407.34 233.16C407.207 233.027 407.02 232.88 406.78 232.72C406.54 232.547 406.293 232.387 406.04 232.24C405.8 232.08 405.587 231.947 405.4 231.84C406.027 231.36 406.613 230.767 407.16 230.06C407.72 229.34 408.167 228.6 408.5 227.84ZM416.64 227.84L418.92 228.4C418.573 229.28 418.12 230.12 417.56 230.92C417 231.72 416.433 232.387 415.86 232.92C415.7 232.8 415.487 232.667 415.22 232.52C414.967 232.373 414.707 232.233 414.44 232.1C414.187 231.967 413.96 231.86 413.76 231.78C414.373 231.313 414.933 230.727 415.44 230.02C415.96 229.313 416.36 228.587 416.64 227.84ZM409.22 230.78L411.18 230.12C411.433 230.427 411.687 230.78 411.94 231.18C412.193 231.567 412.373 231.907 412.48 232.2L410.4 232.94C410.307 232.647 410.14 232.3 409.9 231.9C409.673 231.487 409.447 231.113 409.22 230.78ZM418.02 230.76L419.94 229.96C420.247 230.267 420.573 230.62 420.92 231.02C421.267 231.42 421.533 231.773 421.72 232.08L419.68 232.98C419.533 232.673 419.293 232.313 418.96 231.9C418.64 231.473 418.327 231.093 418.02 230.76ZM410.74 240.02H413.16V241.96C413.16 242.427 413.08 242.893 412.92 243.36C412.76 243.813 412.48 244.247 412.08 244.66C411.693 245.073 411.147 245.46 410.44 245.82C409.733 246.193 408.827 246.52 407.72 246.8C407.573 246.547 407.353 246.24 407.06 245.88C406.767 245.533 406.487 245.253 406.22 245.04C407.193 244.853 407.973 244.64 408.56 244.4C409.16 244.147 409.613 243.88 409.92 243.6C410.24 243.307 410.453 243.02 410.56 242.74C410.68 242.447 410.74 242.167 410.74 241.9V240.02ZM434.92 230.3C434.373 231.06 433.68 231.847 432.84 232.66C432.013 233.473 431.093 234.253 430.08 235C429.08 235.747 428.033 236.413 426.94 237C426.833 236.8 426.693 236.58 426.52 236.34C426.36 236.1 426.18 235.867 425.98 235.64C425.793 235.413 425.613 235.213 425.44 235.04C426.587 234.493 427.687 233.82 428.74 233.02C429.793 232.207 430.733 231.36 431.56 230.48C432.4 229.6 433.067 228.753 433.56 227.94H436.06C436.607 228.7 437.207 229.427 437.86 230.12C438.513 230.813 439.213 231.453 439.96 232.04C440.707 232.627 441.473 233.153 442.26 233.62C443.047 234.087 443.84 234.48 444.64 234.8C444.333 235.107 444.047 235.453 443.78 235.84C443.513 236.227 443.267 236.6 443.04 236.96C442.28 236.56 441.507 236.1 440.72 235.58C439.947 235.06 439.2 234.507 438.48 233.92C437.76 233.32 437.093 232.713 436.48 232.1C435.867 231.487 435.347 230.887 434.92 230.3ZM429.92 234H439.98V236.1H429.92V234ZM427.52 238.08H442.34V240.16H427.52V238.08ZM426.52 244.16H443.52V246.22H426.52V244.16ZM433.62 234.84H436.16V245.2H433.62V234.84ZM428.78 240.92L430.7 240.12C430.953 240.453 431.2 240.82 431.44 241.22C431.693 241.62 431.92 242.013 432.12 242.4C432.32 242.787 432.467 243.133 432.56 243.44L430.5 244.36C430.42 244.053 430.287 243.7 430.1 243.3C429.913 242.887 429.707 242.473 429.48 242.06C429.253 241.647 429.02 241.267 428.78 240.92ZM438.94 240.14L441.24 240.98C440.84 241.593 440.427 242.207 440 242.82C439.573 243.42 439.18 243.933 438.82 244.36L437.02 243.6C437.247 243.28 437.48 242.927 437.72 242.54C437.96 242.14 438.187 241.733 438.4 241.32C438.613 240.893 438.793 240.5 438.94 240.14ZM455.32 229.14H464.3V231.22H455.32V229.14ZM458.82 230.42L460.86 230.88C460.647 231.44 460.433 231.98 460.22 232.5C460.007 233.02 459.807 233.473 459.62 233.86L457.8 233.4C457.92 233.12 458.04 232.807 458.16 232.46C458.293 232.113 458.42 231.76 458.54 231.4C458.66 231.04 458.753 230.713 458.82 230.42ZM455.48 232.92H463.68V242.24H461.62V234.74H457.46V242.32H455.48V232.92ZM458.6 235.46H460.62C460.593 237.06 460.52 238.473 460.4 239.7C460.293 240.927 460.06 242 459.7 242.92C459.353 243.827 458.807 244.607 458.06 245.26C457.327 245.913 456.333 246.46 455.08 246.9C454.973 246.633 454.8 246.327 454.56 245.98C454.333 245.647 454.113 245.387 453.9 245.2C455.02 244.827 455.893 244.38 456.52 243.86C457.147 243.327 457.6 242.68 457.88 241.92C458.173 241.16 458.36 240.253 458.44 239.2C458.52 238.133 458.573 236.887 458.6 235.46ZM459.82 243.8L461.04 242.3C461.427 242.58 461.847 242.887 462.3 243.22C462.767 243.553 463.207 243.887 463.62 244.22C464.033 244.54 464.373 244.833 464.64 245.1L463.36 246.78C463.107 246.5 462.773 246.18 462.36 245.82C461.96 245.473 461.533 245.127 461.08 244.78C460.64 244.42 460.22 244.093 459.82 243.8ZM445.86 229.96H455V233.48H452.84V231.88H447.92V233.48H445.86V229.96ZM447.3 240.42H454.12V246.62H451.94V242.28H449.38V246.62H447.3V240.42ZM447.98 244.24H452.78V246.1H447.98V244.24ZM448.86 232.16L450.96 232.56C450.493 233.427 449.913 234.253 449.22 235.04C448.54 235.827 447.7 236.553 446.7 237.22C446.607 237.047 446.48 236.867 446.32 236.68C446.16 236.48 445.993 236.287 445.82 236.1C445.66 235.913 445.507 235.773 445.36 235.68C446.2 235.187 446.913 234.627 447.5 234C448.1 233.36 448.553 232.747 448.86 232.16ZM449.64 233.44H452.96V235.22H448.74L449.64 233.44ZM452.62 233.44H453.1L453.52 233.38L454.8 234.24C454.28 235.373 453.58 236.387 452.7 237.28C451.833 238.173 450.853 238.94 449.76 239.58C448.68 240.22 447.553 240.727 446.38 241.1C446.34 240.887 446.273 240.633 446.18 240.34C446.087 240.047 445.98 239.767 445.86 239.5C445.753 239.22 445.647 239 445.54 238.84C446.593 238.573 447.587 238.2 448.52 237.72C449.453 237.24 450.28 236.673 451 236.02C451.72 235.353 452.26 234.613 452.62 233.8V233.44ZM448.84 228.54L451.12 228.06C451.307 228.46 451.513 228.9 451.74 229.38C451.98 229.86 452.16 230.26 452.28 230.58L449.9 231.16C449.793 230.827 449.64 230.413 449.44 229.92C449.24 229.413 449.04 228.953 448.84 228.54ZM447.64 237.12L449.2 235.7C449.667 235.927 450.187 236.18 450.76 236.46C451.333 236.727 451.907 237.007 452.48 237.3C453.067 237.58 453.613 237.86 454.12 238.14C454.64 238.42 455.087 238.673 455.46 238.9L453.8 240.52C453.467 240.293 453.047 240.04 452.54 239.76C452.047 239.467 451.513 239.167 450.94 238.86C450.38 238.553 449.813 238.247 449.24 237.94C448.667 237.633 448.133 237.36 447.64 237.12Z" fill="#1F32D6"/>
<rect x="225" y="270" width="320" height="90" fill="#1F32D6" fill-opacity="0.25"/>
<rect x="225" y="270" width="320" height="90" stroke="#1F32D6" stroke-width="2"/>
<path d="M316.22 305.52H333.8V307.7H316.22V305.52ZM323.68 304H326.14V306.82H323.68V304ZM316.88 309.26H332.28V311.34H319.16V322.76H316.88V309.26ZM331.04 309.26H333.34V320.2C333.34 320.773 333.267 321.233 333.12 321.58C332.987 321.927 332.727 322.2 332.34 322.4C331.94 322.573 331.453 322.68 330.88 322.72C330.307 322.773 329.627 322.8 328.84 322.8C328.8 322.587 328.74 322.34 328.66 322.06C328.58 321.78 328.487 321.5 328.38 321.22C328.273 320.953 328.16 320.72 328.04 320.52C328.573 320.533 329.087 320.547 329.58 320.56C330.087 320.56 330.427 320.56 330.6 320.56C330.76 320.56 330.873 320.533 330.94 320.48C331.007 320.413 331.04 320.307 331.04 320.16V309.26ZM321.92 311.08H324.04C324 311.867 323.867 312.553 323.64 313.14C323.413 313.727 323.02 314.213 322.46 314.6C321.9 314.987 321.087 315.307 320.02 315.56C319.94 315.293 319.787 314.993 319.56 314.66C319.347 314.327 319.14 314.067 318.94 313.88C319.767 313.733 320.387 313.547 320.8 313.32C321.213 313.08 321.493 312.78 321.64 312.42C321.8 312.06 321.893 311.613 321.92 311.08ZM325.64 311.06H327.7V312.6C327.7 312.813 327.727 312.947 327.78 313C327.833 313.04 327.947 313.06 328.12 313.06C328.16 313.06 328.227 313.06 328.32 313.06C328.413 313.06 328.513 313.06 328.62 313.06C328.727 313.06 328.827 313.06 328.92 313.06C329.027 313.06 329.1 313.06 329.14 313.06C329.26 313.06 329.347 313.04 329.4 313C329.467 312.947 329.513 312.84 329.54 312.68C329.58 312.52 329.607 312.28 329.62 311.96C329.807 312.093 330.073 312.227 330.42 312.36C330.78 312.48 331.093 312.573 331.36 312.64C331.267 313.493 331.073 314.067 330.78 314.36C330.487 314.653 330.033 314.8 329.42 314.8C329.327 314.8 329.207 314.8 329.06 314.8C328.913 314.8 328.753 314.8 328.58 314.8C328.42 314.8 328.267 314.8 328.12 314.8C327.987 314.8 327.88 314.8 327.8 314.8C327.213 314.8 326.76 314.733 326.44 314.6C326.133 314.453 325.92 314.227 325.8 313.92C325.693 313.6 325.64 313.167 325.64 312.62V311.06ZM321.12 315.54H323.26V321.86H321.12V315.54ZM322.44 315.54H329.02V320.78H322.44V319H326.86V317.32H322.44V315.54ZM319.8 307.66L322.18 307.26C322.367 307.567 322.547 307.92 322.72 308.32C322.893 308.707 323.02 309.047 323.1 309.34L320.6 309.84C320.547 309.547 320.44 309.193 320.28 308.78C320.133 308.367 319.973 307.993 319.8 307.66ZM327.62 307.24L330.28 307.64C330.04 308.067 329.813 308.467 329.6 308.84C329.4 309.2 329.207 309.507 329.02 309.76L326.64 309.36C326.813 309.053 326.993 308.7 327.18 308.3C327.367 307.9 327.513 307.547 327.62 307.24ZM337.88 307.02H340.4V311.56C340.4 312.4 340.367 313.32 340.3 314.32C340.233 315.307 340.1 316.32 339.9 317.36C339.713 318.387 339.433 319.38 339.06 320.34C338.7 321.3 338.227 322.167 337.64 322.94C337.493 322.793 337.287 322.62 337.02 322.42C336.767 322.233 336.5 322.053 336.22 321.88C335.953 321.707 335.72 321.573 335.52 321.48C336.053 320.773 336.48 320 336.8 319.16C337.12 318.307 337.353 317.44 337.5 316.56C337.66 315.667 337.76 314.793 337.8 313.94C337.853 313.087 337.88 312.293 337.88 311.56V307.02ZM343.38 304.5L345.78 303.9C345.993 304.327 346.207 304.8 346.42 305.32C346.633 305.827 346.8 306.28 346.92 306.68L344.46 307.38C344.353 306.993 344.193 306.527 343.98 305.98C343.78 305.433 343.58 304.94 343.38 304.5ZM339.46 307.02H352.34V315.68H349.88V309.26H339.46V307.02ZM339.52 312.4H351.1V314.64H339.52V312.4ZM357.62 309.06H360.1V318.4C360.1 318.813 360.153 319.127 360.26 319.34C360.38 319.54 360.627 319.673 361 319.74C361.373 319.807 361.92 319.84 362.64 319.84C362.853 319.84 363.173 319.84 363.6 319.84C364.04 319.84 364.527 319.84 365.06 319.84C365.607 319.84 366.153 319.84 366.7 319.84C367.26 319.84 367.767 319.84 368.22 319.84C368.673 319.84 369.013 319.84 369.24 319.84C369.773 319.84 370.193 319.8 370.5 319.72C370.82 319.627 371.067 319.46 371.24 319.22C371.427 318.98 371.567 318.633 371.66 318.18C371.753 317.727 371.84 317.133 371.92 316.4C372.133 316.52 372.38 316.647 372.66 316.78C372.953 316.913 373.247 317.027 373.54 317.12C373.847 317.213 374.113 317.287 374.34 317.34C374.233 318.287 374.08 319.073 373.88 319.7C373.68 320.327 373.4 320.827 373.04 321.2C372.68 321.573 372.2 321.84 371.6 322C371 322.16 370.247 322.24 369.34 322.24C369.18 322.24 368.927 322.24 368.58 322.24C368.233 322.24 367.833 322.24 367.38 322.24C366.927 322.24 366.46 322.24 365.98 322.24C365.5 322.24 365.033 322.24 364.58 322.24C364.14 322.24 363.747 322.24 363.4 322.24C363.053 322.24 362.807 322.24 362.66 322.24C361.367 322.24 360.353 322.127 359.62 321.9C358.887 321.687 358.367 321.307 358.06 320.76C357.767 320.2 357.62 319.413 357.62 318.4V309.06ZM359.04 311.78H370.1V314.14H359.04V311.78ZM356.82 305.14H371.72V315.08H369.22V307.52H356.82V305.14ZM376.32 317.6C376.28 317.44 376.213 317.227 376.12 316.96C376.027 316.68 375.927 316.387 375.82 316.08C375.713 315.773 375.613 315.513 375.52 315.3C375.8 315.247 376.067 315.113 376.32 314.9C376.573 314.687 376.867 314.4 377.2 314.04C377.387 313.867 377.647 313.58 377.98 313.18C378.313 312.767 378.68 312.28 379.08 311.72C379.493 311.16 379.907 310.553 380.32 309.9C380.733 309.247 381.113 308.58 381.46 307.9L383.58 309.28C382.793 310.573 381.893 311.84 380.88 313.08C379.88 314.32 378.867 315.42 377.84 316.38V316.42C377.84 316.42 377.76 316.46 377.6 316.54C377.453 316.62 377.28 316.727 377.08 316.86C376.88 316.98 376.7 317.107 376.54 317.24C376.393 317.373 376.32 317.493 376.32 317.6ZM376.32 317.6L376.18 315.66L377.26 314.9L383.12 314.02C383.107 314.34 383.113 314.707 383.14 315.12C383.167 315.52 383.2 315.847 383.24 316.1C381.88 316.34 380.773 316.54 379.92 316.7C379.08 316.86 378.427 316.993 377.96 317.1C377.493 317.207 377.133 317.3 376.88 317.38C376.64 317.46 376.453 317.533 376.32 317.6ZM376.14 312.62C376.1 312.46 376.033 312.24 375.94 311.96C375.847 311.667 375.74 311.373 375.62 311.08C375.513 310.773 375.413 310.507 375.32 310.28C375.533 310.227 375.74 310.1 375.94 309.9C376.14 309.7 376.34 309.453 376.54 309.16C376.66 309 376.82 308.747 377.02 308.4C377.233 308.053 377.46 307.647 377.7 307.18C377.953 306.713 378.2 306.207 378.44 305.66C378.68 305.1 378.893 304.54 379.08 303.98L381.56 305C381.213 305.76 380.82 306.52 380.38 307.28C379.953 308.04 379.5 308.767 379.02 309.46C378.553 310.153 378.087 310.773 377.62 311.32V311.4C377.62 311.4 377.547 311.44 377.4 311.52C377.253 311.6 377.08 311.707 376.88 311.84C376.68 311.973 376.507 312.113 376.36 312.26C376.213 312.393 376.14 312.513 376.14 312.62ZM376.14 312.62L376.08 310.9L377.12 310.22L381.38 309.92C381.313 310.213 381.253 310.553 381.2 310.94C381.16 311.327 381.14 311.647 381.14 311.9C380.193 311.98 379.42 312.06 378.82 312.14C378.22 312.207 377.74 312.267 377.38 312.32C377.033 312.373 376.767 312.427 376.58 312.48C376.393 312.52 376.247 312.567 376.14 312.62ZM375.5 319.54C376.18 319.433 376.94 319.313 377.78 319.18C378.62 319.033 379.513 318.873 380.46 318.7C381.407 318.527 382.34 318.353 383.26 318.18L383.46 320.42C382.153 320.713 380.833 320.993 379.5 321.26C378.167 321.527 376.967 321.773 375.9 322L375.5 319.54ZM383.22 306.46H394.12V308.76H383.22V306.46ZM383.76 310.96H393.64V313.24H383.76V310.96ZM385.54 319.76H392.02V321.92H385.54V319.76ZM387.44 303.98H389.94V312.12H387.44V303.98ZM384.24 314.72H393.28V322.7H390.82V316.88H386.58V322.78H384.24V314.72ZM395.96 317.62H414.08V319.54H395.96V317.62ZM400.7 312.16V312.9H409.62V312.16H400.7ZM400.7 314.26V315H409.62V314.26H400.7ZM400.7 310.12V310.82H409.62V310.12H400.7ZM398.28 308.68H412.14V316.42H398.28V308.68ZM407.36 316.04H409.86V322.76H407.36V316.04ZM398.4 305.32H404.72V307.2H398.4V305.32ZM406.36 305.32H414.02V307.2H406.36V305.32ZM398.5 303.84L400.72 304.46C400.32 305.353 399.807 306.22 399.18 307.06C398.567 307.9 397.953 308.6 397.34 309.16C397.207 309.027 397.02 308.88 396.78 308.72C396.54 308.547 396.293 308.387 396.04 308.24C395.8 308.08 395.587 307.947 395.4 307.84C396.027 307.36 396.613 306.767 397.16 306.06C397.72 305.34 398.167 304.6 398.5 303.84ZM406.64 303.84L408.92 304.4C408.573 305.28 408.12 306.12 407.56 306.92C407 307.72 406.433 308.387 405.86 308.92C405.7 308.8 405.487 308.667 405.22 308.52C404.967 308.373 404.707 308.233 404.44 308.1C404.187 307.967 403.96 307.86 403.76 307.78C404.373 307.313 404.933 306.727 405.44 306.02C405.96 305.313 406.36 304.587 406.64 303.84ZM399.22 306.78L401.18 306.12C401.433 306.427 401.687 306.78 401.94 307.18C402.193 307.567 402.373 307.907 402.48 308.2L400.4 308.94C400.307 308.647 400.14 308.3 399.9 307.9C399.673 307.487 399.447 307.113 399.22 306.78ZM408.02 306.76L409.94 305.96C410.247 306.267 410.573 306.62 410.92 307.02C411.267 307.42 411.533 307.773 411.72 308.08L409.68 308.98C409.533 308.673 409.293 308.313 408.96 307.9C408.64 307.473 408.327 307.093 408.02 306.76ZM400.74 316.02H403.16V317.96C403.16 318.427 403.08 318.893 402.92 319.36C402.76 319.813 402.48 320.247 402.08 320.66C401.693 321.073 401.147 321.46 400.44 321.82C399.733 322.193 398.827 322.52 397.72 322.8C397.573 322.547 397.353 322.24 397.06 321.88C396.767 321.533 396.487 321.253 396.22 321.04C397.193 320.853 397.973 320.64 398.56 320.4C399.16 320.147 399.613 319.88 399.92 319.6C400.24 319.307 400.453 319.02 400.56 318.74C400.68 318.447 400.74 318.167 400.74 317.9V316.02ZM424.92 306.3C424.373 307.06 423.68 307.847 422.84 308.66C422.013 309.473 421.093 310.253 420.08 311C419.08 311.747 418.033 312.413 416.94 313C416.833 312.8 416.693 312.58 416.52 312.34C416.36 312.1 416.18 311.867 415.98 311.64C415.793 311.413 415.613 311.213 415.44 311.04C416.587 310.493 417.687 309.82 418.74 309.02C419.793 308.207 420.733 307.36 421.56 306.48C422.4 305.6 423.067 304.753 423.56 303.94H426.06C426.607 304.7 427.207 305.427 427.86 306.12C428.513 306.813 429.213 307.453 429.96 308.04C430.707 308.627 431.473 309.153 432.26 309.62C433.047 310.087 433.84 310.48 434.64 310.8C434.333 311.107 434.047 311.453 433.78 311.84C433.513 312.227 433.267 312.6 433.04 312.96C432.28 312.56 431.507 312.1 430.72 311.58C429.947 311.06 429.2 310.507 428.48 309.92C427.76 309.32 427.093 308.713 426.48 308.1C425.867 307.487 425.347 306.887 424.92 306.3ZM419.92 310H429.98V312.1H419.92V310ZM417.52 314.08H432.34V316.16H417.52V314.08ZM416.52 320.16H433.52V322.22H416.52V320.16ZM423.62 310.84H426.16V321.2H423.62V310.84ZM418.78 316.92L420.7 316.12C420.953 316.453 421.2 316.82 421.44 317.22C421.693 317.62 421.92 318.013 422.12 318.4C422.32 318.787 422.467 319.133 422.56 319.44L420.5 320.36C420.42 320.053 420.287 319.7 420.1 319.3C419.913 318.887 419.707 318.473 419.48 318.06C419.253 317.647 419.02 317.267 418.78 316.92ZM428.94 316.14L431.24 316.98C430.84 317.593 430.427 318.207 430 318.82C429.573 319.42 429.18 319.933 428.82 320.36L427.02 319.6C427.247 319.28 427.48 318.927 427.72 318.54C427.96 318.14 428.187 317.733 428.4 317.32C428.613 316.893 428.793 316.5 428.94 316.14ZM445.32 305.14H454.3V307.22H445.32V305.14ZM448.82 306.42L450.86 306.88C450.647 307.44 450.433 307.98 450.22 308.5C450.007 309.02 449.807 309.473 449.62 309.86L447.8 309.4C447.92 309.12 448.04 308.807 448.16 308.46C448.293 308.113 448.42 307.76 448.54 307.4C448.66 307.04 448.753 306.713 448.82 306.42ZM445.48 308.92H453.68V318.24H451.62V310.74H447.46V318.32H445.48V308.92ZM448.6 311.46H450.62C450.593 313.06 450.52 314.473 450.4 315.7C450.293 316.927 450.06 318 449.7 318.92C449.353 319.827 448.807 320.607 448.06 321.26C447.327 321.913 446.333 322.46 445.08 322.9C444.973 322.633 444.8 322.327 444.56 321.98C444.333 321.647 444.113 321.387 443.9 321.2C445.02 320.827 445.893 320.38 446.52 319.86C447.147 319.327 447.6 318.68 447.88 317.92C448.173 317.16 448.36 316.253 448.44 315.2C448.52 314.133 448.573 312.887 448.6 311.46ZM449.82 319.8L451.04 318.3C451.427 318.58 451.847 318.887 452.3 319.22C452.767 319.553 453.207 319.887 453.62 320.22C454.033 320.54 454.373 320.833 454.64 321.1L453.36 322.78C453.107 322.5 452.773 322.18 452.36 321.82C451.96 321.473 451.533 321.127 451.08 320.78C450.64 320.42 450.22 320.093 449.82 319.8ZM435.86 305.96H445V309.48H442.84V307.88H437.92V309.48H435.86V305.96ZM437.3 316.42H444.12V322.62H441.94V318.28H439.38V322.62H437.3V316.42ZM437.98 320.24H442.78V322.1H437.98V320.24ZM438.86 308.16L440.96 308.56C440.493 309.427 439.913 310.253 439.22 311.04C438.54 311.827 437.7 312.553 436.7 313.22C436.607 313.047 436.48 312.867 436.32 312.68C436.16 312.48 435.993 312.287 435.82 312.1C435.66 311.913 435.507 311.773 435.36 311.68C436.2 311.187 436.913 310.627 437.5 310C438.1 309.36 438.553 308.747 438.86 308.16ZM439.64 309.44H442.96V311.22H438.74L439.64 309.44ZM442.62 309.44H443.1L443.52 309.38L444.8 310.24C444.28 311.373 443.58 312.387 442.7 313.28C441.833 314.173 440.853 314.94 439.76 315.58C438.68 316.22 437.553 316.727 436.38 317.1C436.34 316.887 436.273 316.633 436.18 316.34C436.087 316.047 435.98 315.767 435.86 315.5C435.753 315.22 435.647 315 435.54 314.84C436.593 314.573 437.587 314.2 438.52 313.72C439.453 313.24 440.28 312.673 441 312.02C441.72 311.353 442.26 310.613 442.62 309.8V309.44ZM438.84 304.54L441.12 304.06C441.307 304.46 441.513 304.9 441.74 305.38C441.98 305.86 442.16 306.26 442.28 306.58L439.9 307.16C439.793 306.827 439.64 306.413 439.44 305.92C439.24 305.413 439.04 304.953 438.84 304.54ZM437.64 313.12L439.2 311.7C439.667 311.927 440.187 312.18 440.76 312.46C441.333 312.727 441.907 313.007 442.48 313.3C443.067 313.58 443.613 313.86 444.12 314.14C444.64 314.42 445.087 314.673 445.46 314.9L443.8 316.52C443.467 316.293 443.047 316.04 442.54 315.76C442.047 315.467 441.513 315.167 440.94 314.86C440.38 314.553 439.813 314.247 439.24 313.94C438.667 313.633 438.133 313.36 437.64 313.12Z" fill="#1F32D6"/>
<rect x="225" y="360" width="320" height="56" fill="#7984E6"/>
<rect x="225" y="360" width="320" height="56" stroke="#1F32D6" stroke-width="2"/>
<path d="M316.22 379.52H333.8V381.7H316.22V379.52ZM323.68 378H326.14V380.82H323.68V378ZM316.88 383.26H332.28V385.34H319.16V396.76H316.88V383.26ZM331.04 383.26H333.34V394.2C333.34 394.773 333.267 395.233 333.12 395.58C332.987 395.927 332.727 396.2 332.34 396.4C331.94 396.573 331.453 396.68 330.88 396.72C330.307 396.773 329.627 396.8 328.84 396.8C328.8 396.587 328.74 396.34 328.66 396.06C328.58 395.78 328.487 395.5 328.38 395.22C328.273 394.953 328.16 394.72 328.04 394.52C328.573 394.533 329.087 394.547 329.58 394.56C330.087 394.56 330.427 394.56 330.6 394.56C330.76 394.56 330.873 394.533 330.94 394.48C331.007 394.413 331.04 394.307 331.04 394.16V383.26ZM321.92 385.08H324.04C324 385.867 323.867 386.553 323.64 387.14C323.413 387.727 323.02 388.213 322.46 388.6C321.9 388.987 321.087 389.307 320.02 389.56C319.94 389.293 319.787 388.993 319.56 388.66C319.347 388.327 319.14 388.067 318.94 387.88C319.767 387.733 320.387 387.547 320.8 387.32C321.213 387.08 321.493 386.78 321.64 386.42C321.8 386.06 321.893 385.613 321.92 385.08ZM325.64 385.06H327.7V386.6C327.7 386.813 327.727 386.947 327.78 387C327.833 387.04 327.947 387.06 328.12 387.06C328.16 387.06 328.227 387.06 328.32 387.06C328.413 387.06 328.513 387.06 328.62 387.06C328.727 387.06 328.827 387.06 328.92 387.06C329.027 387.06 329.1 387.06 329.14 387.06C329.26 387.06 329.347 387.04 329.4 387C329.467 386.947 329.513 386.84 329.54 386.68C329.58 386.52 329.607 386.28 329.62 385.96C329.807 386.093 330.073 386.227 330.42 386.36C330.78 386.48 331.093 386.573 331.36 386.64C331.267 387.493 331.073 388.067 330.78 388.36C330.487 388.653 330.033 388.8 329.42 388.8C329.327 388.8 329.207 388.8 329.06 388.8C328.913 388.8 328.753 388.8 328.58 388.8C328.42 388.8 328.267 388.8 328.12 388.8C327.987 388.8 327.88 388.8 327.8 388.8C327.213 388.8 326.76 388.733 326.44 388.6C326.133 388.453 325.92 388.227 325.8 387.92C325.693 387.6 325.64 387.167 325.64 386.62V385.06ZM321.12 389.54H323.26V395.86H321.12V389.54ZM322.44 389.54H329.02V394.78H322.44V393H326.86V391.32H322.44V389.54ZM319.8 381.66L322.18 381.26C322.367 381.567 322.547 381.92 322.72 382.32C322.893 382.707 323.02 383.047 323.1 383.34L320.6 383.84C320.547 383.547 320.44 383.193 320.28 382.78C320.133 382.367 319.973 381.993 319.8 381.66ZM327.62 381.24L330.28 381.64C330.04 382.067 329.813 382.467 329.6 382.84C329.4 383.2 329.207 383.507 329.02 383.76L326.64 383.36C326.813 383.053 326.993 382.7 327.18 382.3C327.367 381.9 327.513 381.547 327.62 381.24ZM337.88 381.02H340.4V385.56C340.4 386.4 340.367 387.32 340.3 388.32C340.233 389.307 340.1 390.32 339.9 391.36C339.713 392.387 339.433 393.38 339.06 394.34C338.7 395.3 338.227 396.167 337.64 396.94C337.493 396.793 337.287 396.62 337.02 396.42C336.767 396.233 336.5 396.053 336.22 395.88C335.953 395.707 335.72 395.573 335.52 395.48C336.053 394.773 336.48 394 336.8 393.16C337.12 392.307 337.353 391.44 337.5 390.56C337.66 389.667 337.76 388.793 337.8 387.94C337.853 387.087 337.88 386.293 337.88 385.56V381.02ZM343.38 378.5L345.78 377.9C345.993 378.327 346.207 378.8 346.42 379.32C346.633 379.827 346.8 380.28 346.92 380.68L344.46 381.38C344.353 380.993 344.193 380.527 343.98 379.98C343.78 379.433 343.58 378.94 343.38 378.5ZM339.46 381.02H352.34V389.68H349.88V383.26H339.46V381.02ZM339.52 386.4H351.1V388.64H339.52V386.4ZM357.62 383.06H360.1V392.4C360.1 392.813 360.153 393.127 360.26 393.34C360.38 393.54 360.627 393.673 361 393.74C361.373 393.807 361.92 393.84 362.64 393.84C362.853 393.84 363.173 393.84 363.6 393.84C364.04 393.84 364.527 393.84 365.06 393.84C365.607 393.84 366.153 393.84 366.7 393.84C367.26 393.84 367.767 393.84 368.22 393.84C368.673 393.84 369.013 393.84 369.24 393.84C369.773 393.84 370.193 393.8 370.5 393.72C370.82 393.627 371.067 393.46 371.24 393.22C371.427 392.98 371.567 392.633 371.66 392.18C371.753 391.727 371.84 391.133 371.92 390.4C372.133 390.52 372.38 390.647 372.66 390.78C372.953 390.913 373.247 391.027 373.54 391.12C373.847 391.213 374.113 391.287 374.34 391.34C374.233 392.287 374.08 393.073 373.88 393.7C373.68 394.327 373.4 394.827 373.04 395.2C372.68 395.573 372.2 395.84 371.6 396C371 396.16 370.247 396.24 369.34 396.24C369.18 396.24 368.927 396.24 368.58 396.24C368.233 396.24 367.833 396.24 367.38 396.24C366.927 396.24 366.46 396.24 365.98 396.24C365.5 396.24 365.033 396.24 364.58 396.24C364.14 396.24 363.747 396.24 363.4 396.24C363.053 396.24 362.807 396.24 362.66 396.24C361.367 396.24 360.353 396.127 359.62 395.9C358.887 395.687 358.367 395.307 358.06 394.76C357.767 394.2 357.62 393.413 357.62 392.4V383.06ZM359.04 385.78H370.1V388.14H359.04V385.78ZM356.82 379.14H371.72V389.08H369.22V381.52H356.82V379.14ZM384.22 378.68H392.48V386.6H384.06V384.6H390.16V380.7H384.22V378.68ZM382.78 378.68H385.12V391.62H382.78V378.68ZM384.14 381.74H390.9V383.48H384.14V381.74ZM381.54 391.12C382.393 390.973 383.413 390.78 384.6 390.54C385.8 390.3 387.013 390.053 388.24 389.8L388.42 391.86C387.3 392.127 386.167 392.393 385.02 392.66C383.887 392.927 382.847 393.167 381.9 393.38L381.54 391.12ZM388.62 385.78C388.9 386.7 389.287 387.54 389.78 388.3C390.287 389.047 390.907 389.693 391.64 390.24C392.387 390.773 393.26 391.173 394.26 391.44C394.087 391.6 393.9 391.8 393.7 392.04C393.513 392.28 393.333 392.533 393.16 392.8C392.987 393.053 392.847 393.287 392.74 393.5C391.633 393.1 390.68 392.56 389.88 391.88C389.093 391.187 388.433 390.367 387.9 389.42C387.367 388.46 386.927 387.373 386.58 386.16L388.62 385.78ZM392.18 386.2L394.02 387.7C393.407 388.1 392.773 388.5 392.12 388.9C391.467 389.3 390.867 389.627 390.32 389.88L388.94 388.66C389.287 388.46 389.66 388.22 390.06 387.94C390.46 387.647 390.847 387.347 391.22 387.04C391.593 386.733 391.913 386.453 392.18 386.2ZM380.54 385.8V393.18H378.2V388.02H375.88V385.8H380.54ZM380.54 392.14C380.953 392.793 381.533 393.273 382.28 393.58C383.027 393.887 383.92 394.06 384.96 394.1C385.547 394.127 386.24 394.147 387.04 394.16C387.853 394.16 388.707 394.153 389.6 394.14C390.493 394.127 391.367 394.1 392.22 394.06C393.087 394.02 393.853 393.973 394.52 393.92C394.44 394.107 394.347 394.347 394.24 394.64C394.133 394.933 394.033 395.233 393.94 395.54C393.86 395.847 393.8 396.12 393.76 396.36C393.16 396.4 392.473 396.427 391.7 396.44C390.927 396.467 390.133 396.48 389.32 396.48C388.507 396.493 387.72 396.493 386.96 396.48C386.2 396.467 385.52 396.447 384.92 396.42C383.693 396.367 382.647 396.173 381.78 395.84C380.913 395.52 380.147 394.973 379.48 394.2C379.04 394.573 378.587 394.96 378.12 395.36C377.667 395.76 377.167 396.173 376.62 396.6L375.44 394.1C375.907 393.82 376.393 393.513 376.9 393.18C377.407 392.847 377.893 392.5 378.36 392.14H380.54ZM375.96 379.96L377.76 378.52C378.16 378.787 378.573 379.1 379 379.46C379.44 379.807 379.847 380.167 380.22 380.54C380.593 380.9 380.893 381.233 381.12 381.54L379.2 383.12C379 382.813 378.72 382.473 378.36 382.1C378.013 381.727 377.627 381.353 377.2 380.98C376.787 380.593 376.373 380.253 375.96 379.96ZM395.86 379.62H405.24V381.58H395.86V379.62ZM395.58 388.34H405.48V390.3H395.58V388.34ZM396.36 382.58H404.8V384.52H396.36V382.58ZM396.48 385.46H404.68V387.4H396.48V385.46ZM399.48 389.18H401.72V394.56C401.72 395.053 401.667 395.447 401.56 395.74C401.467 396.047 401.253 396.28 400.92 396.44C400.6 396.613 400.233 396.72 399.82 396.76C399.407 396.8 398.92 396.82 398.36 396.82C398.32 396.5 398.233 396.147 398.1 395.76C397.98 395.373 397.853 395.033 397.72 394.74C398.04 394.753 398.34 394.76 398.62 394.76C398.913 394.76 399.113 394.76 399.22 394.76C399.393 394.76 399.48 394.673 399.48 394.5V389.18ZM399.46 378.14H401.7V383.86H399.46V378.14ZM396.82 390.68L398.78 391.04C398.62 391.88 398.387 392.7 398.08 393.5C397.787 394.287 397.453 394.953 397.08 395.5C396.96 395.407 396.787 395.3 396.56 395.18C396.333 395.06 396.107 394.953 395.88 394.86C395.653 394.767 395.453 394.687 395.28 394.62C395.667 394.113 395.987 393.513 396.24 392.82C396.493 392.127 396.687 391.413 396.82 390.68ZM402.28 391.34L404.06 390.64C404.313 391.08 404.553 391.567 404.78 392.1C405.007 392.633 405.167 393.087 405.26 393.46L403.38 394.28C403.327 394.013 403.24 393.713 403.12 393.38C403.013 393.033 402.88 392.68 402.72 392.32C402.573 391.96 402.427 391.633 402.28 391.34ZM407.06 381.62H412.7V383.8H407.06V381.62ZM409.46 382.46H410.6V385.9C410.6 386.3 410.633 386.78 410.7 387.34C410.78 387.9 410.907 388.507 411.08 389.16C411.253 389.813 411.487 390.473 411.78 391.14C412.087 391.807 412.467 392.447 412.92 393.06C413.387 393.66 413.947 394.207 414.6 394.7C414.467 394.873 414.307 395.087 414.12 395.34C413.933 395.593 413.753 395.847 413.58 396.1C413.407 396.367 413.26 396.6 413.14 396.8C412.567 396.373 412.06 395.86 411.62 395.26C411.193 394.66 410.827 394.033 410.52 393.38C410.213 392.727 409.973 392.1 409.8 391.5C409.627 390.9 409.507 390.387 409.44 389.96C409.373 390.4 409.24 390.92 409.04 391.52C408.853 392.12 408.587 392.74 408.24 393.38C407.907 394.02 407.487 394.633 406.98 395.22C406.487 395.82 405.913 396.347 405.26 396.8C405.18 396.627 405.06 396.407 404.9 396.14C404.74 395.887 404.567 395.633 404.38 395.38C404.207 395.14 404.053 394.947 403.92 394.8C404.64 394.32 405.253 393.773 405.76 393.16C406.267 392.533 406.68 391.88 407 391.2C407.333 390.52 407.593 389.853 407.78 389.2C407.967 388.547 408.093 387.94 408.16 387.38C408.24 386.807 408.28 386.313 408.28 385.9V382.46H409.46ZM406.6 377.98L409.02 378.32C408.873 379.533 408.667 380.72 408.4 381.88C408.147 383.027 407.833 384.107 407.46 385.12C407.1 386.12 406.687 386.993 406.22 387.74C406.087 387.593 405.893 387.427 405.64 387.24C405.387 387.053 405.133 386.867 404.88 386.68C404.627 386.493 404.407 386.347 404.22 386.24C404.66 385.6 405.033 384.84 405.34 383.96C405.66 383.08 405.92 382.127 406.12 381.1C406.333 380.073 406.493 379.033 406.6 377.98ZM412.04 381.62H412.36L412.72 381.54L414.32 381.96C414.24 382.6 414.147 383.267 414.04 383.96C413.933 384.64 413.813 385.293 413.68 385.92C413.56 386.547 413.44 387.107 413.32 387.6L411.42 387.04C411.5 386.6 411.58 386.093 411.66 385.52C411.74 384.947 411.813 384.353 411.88 383.74C411.96 383.113 412.013 382.527 412.04 381.98V381.62ZM424.92 380.3C424.373 381.06 423.68 381.847 422.84 382.66C422.013 383.473 421.093 384.253 420.08 385C419.08 385.747 418.033 386.413 416.94 387C416.833 386.8 416.693 386.58 416.52 386.34C416.36 386.1 416.18 385.867 415.98 385.64C415.793 385.413 415.613 385.213 415.44 385.04C416.587 384.493 417.687 383.82 418.74 383.02C419.793 382.207 420.733 381.36 421.56 380.48C422.4 379.6 423.067 378.753 423.56 377.94H426.06C426.607 378.7 427.207 379.427 427.86 380.12C428.513 380.813 429.213 381.453 429.96 382.04C430.707 382.627 431.473 383.153 432.26 383.62C433.047 384.087 433.84 384.48 434.64 384.8C434.333 385.107 434.047 385.453 433.78 385.84C433.513 386.227 433.267 386.6 433.04 386.96C432.28 386.56 431.507 386.1 430.72 385.58C429.947 385.06 429.2 384.507 428.48 383.92C427.76 383.32 427.093 382.713 426.48 382.1C425.867 381.487 425.347 380.887 424.92 380.3ZM419.92 384H429.98V386.1H419.92V384ZM417.52 388.08H432.34V390.16H417.52V388.08ZM416.52 394.16H433.52V396.22H416.52V394.16ZM423.62 384.84H426.16V395.2H423.62V384.84ZM418.78 390.92L420.7 390.12C420.953 390.453 421.2 390.82 421.44 391.22C421.693 391.62 421.92 392.013 422.12 392.4C422.32 392.787 422.467 393.133 422.56 393.44L420.5 394.36C420.42 394.053 420.287 393.7 420.1 393.3C419.913 392.887 419.707 392.473 419.48 392.06C419.253 391.647 419.02 391.267 418.78 390.92ZM428.94 390.14L431.24 390.98C430.84 391.593 430.427 392.207 430 392.82C429.573 393.42 429.18 393.933 428.82 394.36L427.02 393.6C427.247 393.28 427.48 392.927 427.72 392.54C427.96 392.14 428.187 391.733 428.4 391.32C428.613 390.893 428.793 390.5 428.94 390.14ZM445.32 379.14H454.3V381.22H445.32V379.14ZM448.82 380.42L450.86 380.88C450.647 381.44 450.433 381.98 450.22 382.5C450.007 383.02 449.807 383.473 449.62 383.86L447.8 383.4C447.92 383.12 448.04 382.807 448.16 382.46C448.293 382.113 448.42 381.76 448.54 381.4C448.66 381.04 448.753 380.713 448.82 380.42ZM445.48 382.92H453.68V392.24H451.62V384.74H447.46V392.32H445.48V382.92ZM448.6 385.46H450.62C450.593 387.06 450.52 388.473 450.4 389.7C450.293 390.927 450.06 392 449.7 392.92C449.353 393.827 448.807 394.607 448.06 395.26C447.327 395.913 446.333 396.46 445.08 396.9C444.973 396.633 444.8 396.327 444.56 395.98C444.333 395.647 444.113 395.387 443.9 395.2C445.02 394.827 445.893 394.38 446.52 393.86C447.147 393.327 447.6 392.68 447.88 391.92C448.173 391.16 448.36 390.253 448.44 389.2C448.52 388.133 448.573 386.887 448.6 385.46ZM449.82 393.8L451.04 392.3C451.427 392.58 451.847 392.887 452.3 393.22C452.767 393.553 453.207 393.887 453.62 394.22C454.033 394.54 454.373 394.833 454.64 395.1L453.36 396.78C453.107 396.5 452.773 396.18 452.36 395.82C451.96 395.473 451.533 395.127 451.08 394.78C450.64 394.42 450.22 394.093 449.82 393.8ZM435.86 379.96H445V383.48H442.84V381.88H437.92V383.48H435.86V379.96ZM437.3 390.42H444.12V396.62H441.94V392.28H439.38V396.62H437.3V390.42ZM437.98 394.24H442.78V396.1H437.98V394.24ZM438.86 382.16L440.96 382.56C440.493 383.427 439.913 384.253 439.22 385.04C438.54 385.827 437.7 386.553 436.7 387.22C436.607 387.047 436.48 386.867 436.32 386.68C436.16 386.48 435.993 386.287 435.82 386.1C435.66 385.913 435.507 385.773 435.36 385.68C436.2 385.187 436.913 384.627 437.5 384C438.1 383.36 438.553 382.747 438.86 382.16ZM439.64 383.44H442.96V385.22H438.74L439.64 383.44ZM442.62 383.44H443.1L443.52 383.38L444.8 384.24C444.28 385.373 443.58 386.387 442.7 387.28C441.833 388.173 440.853 388.94 439.76 389.58C438.68 390.22 437.553 390.727 436.38 391.1C436.34 390.887 436.273 390.633 436.18 390.34C436.087 390.047 435.98 389.767 435.86 389.5C435.753 389.22 435.647 389 435.54 388.84C436.593 388.573 437.587 388.2 438.52 387.72C439.453 387.24 440.28 386.673 441 386.02C441.72 385.353 442.26 384.613 442.62 383.8V383.44ZM438.84 378.54L441.12 378.06C441.307 378.46 441.513 378.9 441.74 379.38C441.98 379.86 442.16 380.26 442.28 380.58L439.9 381.16C439.793 380.827 439.64 380.413 439.44 379.92C439.24 379.413 439.04 378.953 438.84 378.54ZM437.64 387.12L439.2 385.7C439.667 385.927 440.187 386.18 440.76 386.46C441.333 386.727 441.907 387.007 442.48 387.3C443.067 387.58 443.613 387.86 444.12 388.14C444.64 388.42 445.087 388.673 445.46 388.9L443.8 390.52C443.467 390.293 443.047 390.04 442.54 389.76C442.047 389.467 441.513 389.167 440.94 388.86C440.38 388.553 439.813 388.247 439.24 387.94C438.667 387.633 438.133 387.36 437.64 387.12Z" fill="white"/>
<rect x="225" y="416" width="320" height="54" fill="#1F32D6"/>
<rect x="225" y="416" width="320" height="54" stroke="#1F32D6" stroke-width="2"/>
<path d="M245.493 432.52H263.073V434.7H245.493V432.52ZM252.953 431H255.413V433.82H252.953V431ZM246.153 436.26H261.553V438.34H248.433V449.76H246.153V436.26ZM260.313 436.26H262.613V447.2C262.613 447.773 262.54 448.233 262.393 448.58C262.26 448.927 262 449.2 261.613 449.4C261.213 449.573 260.727 449.68 260.153 449.72C259.58 449.773 258.9 449.8 258.113 449.8C258.073 449.587 258.013 449.34 257.933 449.06C257.853 448.78 257.76 448.5 257.653 448.22C257.547 447.953 257.433 447.72 257.313 447.52C257.847 447.533 258.36 447.547 258.853 447.56C259.36 447.56 259.7 447.56 259.873 447.56C260.033 447.56 260.147 447.533 260.213 447.48C260.28 447.413 260.313 447.307 260.313 447.16V436.26ZM251.193 438.08H253.313C253.273 438.867 253.14 439.553 252.913 440.14C252.687 440.727 252.293 441.213 251.733 441.6C251.173 441.987 250.36 442.307 249.293 442.56C249.213 442.293 249.06 441.993 248.833 441.66C248.62 441.327 248.413 441.067 248.213 440.88C249.04 440.733 249.66 440.547 250.073 440.32C250.487 440.08 250.767 439.78 250.913 439.42C251.073 439.06 251.167 438.613 251.193 438.08ZM254.913 438.06H256.973V439.6C256.973 439.813 257 439.947 257.053 440C257.107 440.04 257.22 440.06 257.393 440.06C257.433 440.06 257.5 440.06 257.593 440.06C257.687 440.06 257.787 440.06 257.893 440.06C258 440.06 258.1 440.06 258.193 440.06C258.3 440.06 258.373 440.06 258.413 440.06C258.533 440.06 258.62 440.04 258.673 440C258.74 439.947 258.787 439.84 258.813 439.68C258.853 439.52 258.88 439.28 258.893 438.96C259.08 439.093 259.347 439.227 259.693 439.36C260.053 439.48 260.367 439.573 260.633 439.64C260.54 440.493 260.347 441.067 260.053 441.36C259.76 441.653 259.307 441.8 258.693 441.8C258.6 441.8 258.48 441.8 258.333 441.8C258.187 441.8 258.027 441.8 257.853 441.8C257.693 441.8 257.54 441.8 257.393 441.8C257.26 441.8 257.153 441.8 257.073 441.8C256.487 441.8 256.033 441.733 255.713 441.6C255.407 441.453 255.193 441.227 255.073 440.92C254.967 440.6 254.913 440.167 254.913 439.62V438.06ZM250.393 442.54H252.533V448.86H250.393V442.54ZM251.713 442.54H258.293V447.78H251.713V446H256.133V444.32H251.713V442.54ZM249.073 434.66L251.453 434.26C251.64 434.567 251.82 434.92 251.993 435.32C252.167 435.707 252.293 436.047 252.373 436.34L249.873 436.84C249.82 436.547 249.713 436.193 249.553 435.78C249.407 435.367 249.247 434.993 249.073 434.66ZM256.893 434.24L259.553 434.64C259.313 435.067 259.087 435.467 258.873 435.84C258.673 436.2 258.48 436.507 258.293 436.76L255.913 436.36C256.087 436.053 256.267 435.7 256.453 435.3C256.64 434.9 256.787 434.547 256.893 434.24ZM267.153 434.02H269.673V438.56C269.673 439.4 269.64 440.32 269.573 441.32C269.507 442.307 269.373 443.32 269.173 444.36C268.987 445.387 268.707 446.38 268.333 447.34C267.973 448.3 267.5 449.167 266.913 449.94C266.767 449.793 266.56 449.62 266.293 449.42C266.04 449.233 265.773 449.053 265.493 448.88C265.227 448.707 264.993 448.573 264.793 448.48C265.327 447.773 265.753 447 266.073 446.16C266.393 445.307 266.627 444.44 266.773 443.56C266.933 442.667 267.033 441.793 267.073 440.94C267.127 440.087 267.153 439.293 267.153 438.56V434.02ZM272.653 431.5L275.053 430.9C275.267 431.327 275.48 431.8 275.693 432.32C275.907 432.827 276.073 433.28 276.193 433.68L273.733 434.38C273.627 433.993 273.467 433.527 273.253 432.98C273.053 432.433 272.853 431.94 272.653 431.5ZM268.733 434.02H281.613V442.68H279.153V436.26H268.733V434.02ZM268.793 439.4H280.373V441.64H268.793V439.4ZM285.693 432.9H302.833V436.66H300.333V435.2H288.093V436.66H285.693V432.9ZM292.533 431.44L295.053 430.76C295.213 431.093 295.393 431.473 295.593 431.9C295.793 432.313 295.94 432.667 296.033 432.96L293.393 433.74C293.313 433.433 293.193 433.067 293.033 432.64C292.873 432.2 292.707 431.8 292.533 431.44ZM286.873 437.42H301.693V447.3H299.273V439.48H289.173V447.4H286.873V437.42ZM288.353 440.94H300.513V442.92H288.353V440.94ZM288.333 444.4H300.593V446.48H288.333V444.4ZM292.993 435.7H295.493V449.76H292.993V435.7ZM310.753 443.6V444.62H317.513V443.6H310.753ZM310.753 441.08V442.08H317.513V441.08H310.753ZM308.373 439.5H320.033V446.2H308.373V439.5ZM305.333 433.24H323.253V435.32H305.333V433.24ZM313.013 431H315.393V438.92H313.013V431ZM311.893 433.88L313.913 434.66C313.487 435.313 312.993 435.953 312.433 436.58C311.873 437.193 311.26 437.767 310.593 438.3C309.94 438.82 309.253 439.293 308.533 439.72C307.813 440.147 307.067 440.507 306.293 440.8C306.187 440.6 306.04 440.387 305.853 440.16C305.667 439.92 305.473 439.687 305.273 439.46C305.087 439.233 304.913 439.047 304.753 438.9C305.473 438.66 306.18 438.367 306.873 438.02C307.58 437.673 308.247 437.28 308.873 436.84C309.5 436.387 310.067 435.913 310.573 435.42C311.093 434.927 311.533 434.413 311.893 433.88ZM316.373 433.88C316.747 434.4 317.193 434.907 317.713 435.4C318.247 435.88 318.84 436.333 319.493 436.76C320.147 437.173 320.833 437.547 321.553 437.88C322.273 438.213 323.007 438.487 323.753 438.7C323.58 438.847 323.393 439.04 323.193 439.28C322.993 439.507 322.8 439.747 322.613 440C322.44 440.24 322.3 440.46 322.193 440.66C321.42 440.38 320.66 440.033 319.913 439.62C319.18 439.207 318.48 438.74 317.813 438.22C317.147 437.687 316.527 437.12 315.953 436.52C315.393 435.907 314.893 435.273 314.453 434.62L316.373 433.88ZM305.493 447.12H323.073V449.22H305.493V447.12ZM326.033 434.48H342.553V444.52H340.033V436.84H328.433V444.62H326.033V434.48ZM327.273 441.16H341.433V443.52H327.273V441.16ZM332.953 431H335.493V449.78H332.953V431ZM353.153 429.06L347.753 451.62H345.013L350.413 429.06H353.153ZM356.62 436.06H359.1V445.4C359.1 445.813 359.153 446.127 359.26 446.34C359.38 446.54 359.627 446.673 360 446.74C360.373 446.807 360.92 446.84 361.64 446.84C361.853 446.84 362.173 446.84 362.6 446.84C363.04 446.84 363.527 446.84 364.06 446.84C364.607 446.84 365.153 446.84 365.7 446.84C366.26 446.84 366.767 446.84 367.22 446.84C367.673 446.84 368.013 446.84 368.24 446.84C368.773 446.84 369.193 446.8 369.5 446.72C369.82 446.627 370.067 446.46 370.24 446.22C370.427 445.98 370.567 445.633 370.66 445.18C370.753 444.727 370.84 444.133 370.92 443.4C371.133 443.52 371.38 443.647 371.66 443.78C371.953 443.913 372.247 444.027 372.54 444.12C372.847 444.213 373.113 444.287 373.34 444.34C373.233 445.287 373.08 446.073 372.88 446.7C372.68 447.327 372.4 447.827 372.04 448.2C371.68 448.573 371.2 448.84 370.6 449C370 449.16 369.247 449.24 368.34 449.24C368.18 449.24 367.927 449.24 367.58 449.24C367.233 449.24 366.833 449.24 366.38 449.24C365.927 449.24 365.46 449.24 364.98 449.24C364.5 449.24 364.033 449.24 363.58 449.24C363.14 449.24 362.747 449.24 362.4 449.24C362.053 449.24 361.807 449.24 361.66 449.24C360.367 449.24 359.353 449.127 358.62 448.9C357.887 448.687 357.367 448.307 357.06 447.76C356.767 447.2 356.62 446.413 356.62 445.4V436.06ZM358.04 438.78H369.1V441.14H358.04V438.78ZM355.82 432.14H370.72V442.08H368.22V434.52H355.82V432.14ZM386.22 445.34H388.1V449.32H386.22V445.34ZM384.96 436.24V437.62H389.48V436.24H384.96ZM382.68 434.68H391.9V439.2H382.68V434.68ZM381.74 431.9H392.8V433.86H381.74V431.9ZM384.42 444.92H389.96V446.5H384.42V444.92ZM381.5 440.04H392V441.84H383.64V449.8H381.5V440.04ZM390.7 440.04H392.9V447.58C392.9 448.033 392.853 448.407 392.76 448.7C392.667 448.993 392.467 449.227 392.16 449.4C391.867 449.56 391.52 449.653 391.12 449.68C390.733 449.72 390.28 449.74 389.76 449.74C389.72 449.46 389.633 449.127 389.5 448.74C389.38 448.367 389.26 448.047 389.14 447.78C389.407 447.793 389.667 447.8 389.92 447.8C390.173 447.8 390.347 447.8 390.44 447.8C390.613 447.8 390.7 447.713 390.7 447.54V440.04ZM387.64 440.64H389.06V442.6C389.06 442.773 389.08 442.88 389.12 442.92C389.16 442.947 389.253 442.96 389.4 442.96C389.453 442.96 389.54 442.96 389.66 442.96C389.78 442.96 389.9 442.96 390.02 442.96C390.153 442.96 390.247 442.96 390.3 442.96C390.42 442.96 390.5 442.953 390.54 442.94C390.593 442.927 390.633 442.907 390.66 442.88C390.793 442.987 390.98 443.087 391.22 443.18C391.473 443.26 391.7 443.327 391.9 443.38C391.833 443.713 391.687 443.953 391.46 444.1C391.233 444.233 390.92 444.3 390.52 444.3C390.467 444.3 390.373 444.3 390.24 444.3C390.12 444.3 389.993 444.3 389.86 444.3C389.727 444.3 389.6 444.3 389.48 444.3C389.36 444.3 389.267 444.3 389.2 444.3C388.573 444.3 388.153 444.187 387.94 443.96C387.74 443.72 387.64 443.267 387.64 442.6V440.64ZM385.36 440.88H386.84C386.827 441.547 386.747 442.127 386.6 442.62C386.453 443.113 386.2 443.533 385.84 443.88C385.493 444.213 384.993 444.487 384.34 444.7C384.273 444.513 384.153 444.307 383.98 444.08C383.82 443.853 383.66 443.673 383.5 443.54C383.993 443.393 384.367 443.207 384.62 442.98C384.887 442.753 385.067 442.473 385.16 442.14C385.267 441.793 385.333 441.373 385.36 440.88ZM375.4 431.86H379.82V434.02H377.44V449.8H375.4V431.86ZM379.28 431.86H379.68L380 431.78L381.54 432.66C381.38 433.233 381.2 433.847 381 434.5C380.8 435.153 380.6 435.793 380.4 436.42C380.2 437.047 380.007 437.627 379.82 438.16C380.433 438.92 380.827 439.647 381 440.34C381.187 441.033 381.28 441.673 381.28 442.26C381.28 442.887 381.207 443.413 381.06 443.84C380.927 444.253 380.7 444.573 380.38 444.8C380.087 445.013 379.72 445.153 379.28 445.22C379.107 445.233 378.907 445.247 378.68 445.26C378.467 445.273 378.253 445.273 378.04 445.26C378.04 444.98 378 444.647 377.92 444.26C377.84 443.873 377.72 443.54 377.56 443.26C377.72 443.273 377.86 443.28 377.98 443.28C378.113 443.28 378.233 443.28 378.34 443.28C378.567 443.28 378.747 443.227 378.88 443.12C379 443.027 379.087 442.88 379.14 442.68C379.193 442.467 379.22 442.227 379.22 441.96C379.207 441.48 379.113 440.94 378.94 440.34C378.767 439.727 378.393 439.08 377.82 438.4C377.967 437.947 378.107 437.453 378.24 436.92C378.387 436.373 378.527 435.827 378.66 435.28C378.793 434.733 378.913 434.22 379.02 433.74C379.127 433.26 379.213 432.86 379.28 432.54V431.86ZM395.06 432.56H412.92V434.58H395.06V432.56ZM402.74 431H405.2V433.64H402.74V431ZM398.9 445.62C399.593 445.58 400.387 445.54 401.28 445.5C402.187 445.447 403.14 445.393 404.14 445.34C405.14 445.273 406.147 445.207 407.16 445.14L407.18 446.88C406.22 446.973 405.253 447.06 404.28 447.14C403.32 447.22 402.393 447.293 401.5 447.36C400.62 447.427 399.813 447.487 399.08 447.54L398.9 445.62ZM409.46 441.94H411.98V447.4C411.98 447.947 411.907 448.373 411.76 448.68C411.627 449 411.353 449.253 410.94 449.44C410.553 449.613 410.1 449.713 409.58 449.74C409.06 449.78 408.46 449.8 407.78 449.8C407.727 449.48 407.613 449.113 407.44 448.7C407.267 448.287 407.1 447.933 406.94 447.64C407.22 447.653 407.507 447.667 407.8 447.68C408.093 447.68 408.353 447.68 408.58 447.68C408.82 447.667 408.98 447.66 409.06 447.66C409.207 447.66 409.307 447.64 409.36 447.6C409.427 447.56 409.46 447.48 409.46 447.36V441.94ZM405.22 444.36L406.96 443.68C407.24 444.013 407.507 444.38 407.76 444.78C408.027 445.167 408.26 445.553 408.46 445.94C408.66 446.327 408.807 446.68 408.9 447L407.04 447.76C406.96 447.44 406.82 447.08 406.62 446.68C406.433 446.28 406.213 445.88 405.96 445.48C405.72 445.067 405.473 444.693 405.22 444.36ZM400.72 436.3L401.78 435.04C402.42 435.24 403.087 435.487 403.78 435.78C404.487 436.06 405.153 436.36 405.78 436.68C406.42 437 406.947 437.307 407.36 437.6L406.2 439C405.813 438.707 405.307 438.393 404.68 438.06C404.067 437.727 403.407 437.407 402.7 437.1C402.007 436.78 401.347 436.513 400.72 436.3ZM402.2 440.14L404.92 440.68C404.733 441.36 404.527 442.06 404.3 442.78C404.087 443.487 403.873 444.167 403.66 444.82C403.447 445.46 403.24 446.033 403.04 446.54L401.04 446C401.2 445.467 401.353 444.86 401.5 444.18C401.647 443.487 401.78 442.793 401.9 442.1C402.033 441.393 402.133 440.74 402.2 440.14ZM396.02 441.94H410.52V443.9H398.5V449.74H396.02V441.94ZM397.28 435.16H399.58V439.04H408.46V435.16H410.86V440.94H397.28V435.16ZM405.5 434.74L407.3 435.3C406.833 435.86 406.273 436.38 405.62 436.86C404.967 437.327 404.273 437.747 403.54 438.12C402.807 438.48 402.087 438.8 401.38 439.08C401.207 438.907 400.96 438.7 400.64 438.46C400.333 438.207 400.067 438.013 399.84 437.88C400.587 437.653 401.32 437.387 402.04 437.08C402.76 436.76 403.42 436.407 404.02 436.02C404.62 435.62 405.113 435.193 405.5 434.74ZM422.88 429.06L417.48 451.62H414.74L420.14 429.06H422.88ZM426.347 436.06H428.827V445.4C428.827 445.813 428.88 446.127 428.987 446.34C429.107 446.54 429.353 446.673 429.727 446.74C430.1 446.807 430.647 446.84 431.367 446.84C431.58 446.84 431.9 446.84 432.327 446.84C432.767 446.84 433.253 446.84 433.787 446.84C434.333 446.84 434.88 446.84 435.427 446.84C435.987 446.84 436.493 446.84 436.947 446.84C437.4 446.84 437.74 446.84 437.967 446.84C438.5 446.84 438.92 446.8 439.227 446.72C439.547 446.627 439.793 446.46 439.967 446.22C440.153 445.98 440.293 445.633 440.387 445.18C440.48 444.727 440.567 444.133 440.647 443.4C440.86 443.52 441.107 443.647 441.387 443.78C441.68 443.913 441.973 444.027 442.267 444.12C442.573 444.213 442.84 444.287 443.067 444.34C442.96 445.287 442.807 446.073 442.607 446.7C442.407 447.327 442.127 447.827 441.767 448.2C441.407 448.573 440.927 448.84 440.327 449C439.727 449.16 438.973 449.24 438.067 449.24C437.907 449.24 437.653 449.24 437.307 449.24C436.96 449.24 436.56 449.24 436.107 449.24C435.653 449.24 435.187 449.24 434.707 449.24C434.227 449.24 433.76 449.24 433.307 449.24C432.867 449.24 432.473 449.24 432.127 449.24C431.78 449.24 431.533 449.24 431.387 449.24C430.093 449.24 429.08 449.127 428.347 448.9C427.613 448.687 427.093 448.307 426.787 447.76C426.493 447.2 426.347 446.413 426.347 445.4V436.06ZM427.767 438.78H438.827V441.14H427.767V438.78ZM425.547 432.14H440.447V442.08H437.947V434.52H425.547V432.14ZM458.527 443.72L460.587 442.86C460.893 443.353 461.207 443.887 461.527 444.46C461.86 445.033 462.167 445.6 462.447 446.16C462.74 446.707 462.96 447.193 463.107 447.62L460.887 448.62C460.753 448.193 460.553 447.7 460.287 447.14C460.02 446.58 459.733 446 459.427 445.4C459.12 444.787 458.82 444.227 458.527 443.72ZM455.327 436.9H457.707V447.16C457.707 447.747 457.64 448.2 457.507 448.52C457.373 448.853 457.12 449.12 456.747 449.32C456.373 449.493 455.92 449.6 455.387 449.64C454.853 449.693 454.227 449.72 453.507 449.72C453.467 449.4 453.373 449.02 453.227 448.58C453.093 448.14 452.953 447.767 452.807 447.46C453.247 447.473 453.673 447.487 454.087 447.5C454.513 447.5 454.8 447.493 454.947 447.48C455.093 447.467 455.193 447.44 455.247 447.4C455.3 447.36 455.327 447.273 455.327 447.14V436.9ZM451.367 442.88L453.827 443.56C453.56 444.16 453.26 444.787 452.927 445.44C452.593 446.08 452.233 446.693 451.847 447.28C451.46 447.867 451.06 448.38 450.647 448.82C450.407 448.593 450.1 448.34 449.727 448.06C449.353 447.793 449.027 447.573 448.747 447.4C449.12 447 449.473 446.547 449.807 446.04C450.153 445.52 450.46 444.987 450.727 444.44C450.993 443.88 451.207 443.36 451.367 442.88ZM444.387 433.12L446.347 432.04C446.667 432.52 446.993 433.047 447.327 433.62C447.673 434.193 448 434.747 448.307 435.28C448.613 435.813 448.853 436.293 449.027 436.72L446.927 437.98C446.78 437.553 446.56 437.06 446.267 436.5C445.987 435.94 445.68 435.367 445.347 434.78C445.027 434.18 444.707 433.627 444.387 433.12ZM444.307 447.6C444.6 447.067 444.913 446.44 445.247 445.72C445.593 444.987 445.94 444.213 446.287 443.4C446.633 442.587 446.953 441.787 447.247 441L449.207 442.22C448.94 442.953 448.653 443.7 448.347 444.46C448.04 445.22 447.727 445.967 447.407 446.7C447.1 447.42 446.793 448.107 446.487 448.76L444.307 447.6ZM450.667 441.96V440.16L451.867 439.48H462.007V441.64H452.687C452.22 441.64 451.787 441.673 451.387 441.74C451 441.793 450.76 441.867 450.667 441.96ZM449.387 433.5H462.827V435.7H449.387V433.5ZM450.667 441.96C450.627 441.8 450.56 441.58 450.467 441.3C450.373 441.02 450.273 440.733 450.167 440.44C450.06 440.147 449.953 439.893 449.847 439.68C450.1 439.6 450.313 439.433 450.487 439.18C450.673 438.913 450.873 438.56 451.087 438.12C451.193 437.907 451.347 437.56 451.547 437.08C451.747 436.587 451.96 436.007 452.187 435.34C452.413 434.673 452.64 433.96 452.867 433.2C453.093 432.427 453.287 431.66 453.447 430.9L456.087 431.3C455.793 432.433 455.44 433.56 455.027 434.68C454.627 435.8 454.2 436.867 453.747 437.88C453.293 438.88 452.847 439.787 452.407 440.6V440.64C452.407 440.64 452.32 440.687 452.147 440.78C451.987 440.873 451.787 440.993 451.547 441.14C451.307 441.287 451.1 441.433 450.927 441.58C450.753 441.727 450.667 441.853 450.667 441.96ZM465.047 444.6C465.007 444.44 464.94 444.227 464.847 443.96C464.753 443.68 464.653 443.387 464.547 443.08C464.44 442.773 464.34 442.513 464.247 442.3C464.527 442.247 464.793 442.113 465.047 441.9C465.3 441.687 465.593 441.4 465.927 441.04C466.113 440.867 466.373 440.58 466.707 440.18C467.04 439.767 467.407 439.28 467.807 438.72C468.22 438.16 468.633 437.553 469.047 436.9C469.46 436.247 469.84 435.58 470.187 434.9L472.307 436.28C471.52 437.573 470.62 438.84 469.607 440.08C468.607 441.32 467.593 442.42 466.567 443.38V443.42C466.567 443.42 466.487 443.46 466.327 443.54C466.18 443.62 466.007 443.727 465.807 443.86C465.607 443.98 465.427 444.107 465.267 444.24C465.12 444.373 465.047 444.493 465.047 444.6ZM465.047 444.6L464.907 442.66L465.987 441.9L471.847 441.02C471.833 441.34 471.84 441.707 471.867 442.12C471.893 442.52 471.927 442.847 471.967 443.1C470.607 443.34 469.5 443.54 468.647 443.7C467.807 443.86 467.153 443.993 466.687 444.1C466.22 444.207 465.86 444.3 465.607 444.38C465.367 444.46 465.18 444.533 465.047 444.6ZM464.867 439.62C464.827 439.46 464.76 439.24 464.667 438.96C464.573 438.667 464.467 438.373 464.347 438.08C464.24 437.773 464.14 437.507 464.047 437.28C464.26 437.227 464.467 437.1 464.667 436.9C464.867 436.7 465.067 436.453 465.267 436.16C465.387 436 465.547 435.747 465.747 435.4C465.96 435.053 466.187 434.647 466.427 434.18C466.68 433.713 466.927 433.207 467.167 432.66C467.407 432.1 467.62 431.54 467.807 430.98L470.287 432C469.94 432.76 469.547 433.52 469.107 434.28C468.68 435.04 468.227 435.767 467.747 436.46C467.28 437.153 466.813 437.773 466.347 438.32V438.4C466.347 438.4 466.273 438.44 466.127 438.52C465.98 438.6 465.807 438.707 465.607 438.84C465.407 438.973 465.233 439.113 465.087 439.26C464.94 439.393 464.867 439.513 464.867 439.62ZM464.867 439.62L464.807 437.9L465.847 437.22L470.107 436.92C470.04 437.213 469.98 437.553 469.927 437.94C469.887 438.327 469.867 438.647 469.867 438.9C468.92 438.98 468.147 439.06 467.547 439.14C466.947 439.207 466.467 439.267 466.107 439.32C465.76 439.373 465.493 439.427 465.307 439.48C465.12 439.52 464.973 439.567 464.867 439.62ZM464.227 446.54C464.907 446.433 465.667 446.313 466.507 446.18C467.347 446.033 468.24 445.873 469.187 445.7C470.133 445.527 471.067 445.353 471.987 445.18L472.187 447.42C470.88 447.713 469.56 447.993 468.227 448.26C466.893 448.527 465.693 448.773 464.627 449L464.227 446.54ZM471.947 433.46H482.847V435.76H471.947V433.46ZM472.487 437.96H482.367V440.24H472.487V437.96ZM474.267 446.76H480.747V448.92H474.267V446.76ZM476.167 430.98H478.667V439.12H476.167V430.98ZM472.967 441.72H482.007V449.7H479.547V443.88H475.307V449.78H472.967V441.72ZM493.647 433.3C493.1 434.06 492.407 434.847 491.567 435.66C490.74 436.473 489.82 437.253 488.807 438C487.807 438.747 486.76 439.413 485.667 440C485.56 439.8 485.42 439.58 485.247 439.34C485.087 439.1 484.907 438.867 484.707 438.64C484.52 438.413 484.34 438.213 484.167 438.04C485.313 437.493 486.413 436.82 487.467 436.02C488.52 435.207 489.46 434.36 490.287 433.48C491.127 432.6 491.793 431.753 492.287 430.94H494.787C495.333 431.7 495.933 432.427 496.587 433.12C497.24 433.813 497.94 434.453 498.687 435.04C499.433 435.627 500.2 436.153 500.987 436.62C501.773 437.087 502.567 437.48 503.367 437.8C503.06 438.107 502.773 438.453 502.507 438.84C502.24 439.227 501.993 439.6 501.767 439.96C501.007 439.56 500.233 439.1 499.447 438.58C498.673 438.06 497.927 437.507 497.207 436.92C496.487 436.32 495.82 435.713 495.207 435.1C494.593 434.487 494.073 433.887 493.647 433.3ZM488.647 437H498.707V439.1H488.647V437ZM486.247 441.08H501.067V443.16H486.247V441.08ZM485.247 447.16H502.247V449.22H485.247V447.16ZM492.347 437.84H494.887V448.2H492.347V437.84ZM487.507 443.92L489.427 443.12C489.68 443.453 489.927 443.82 490.167 444.22C490.42 444.62 490.647 445.013 490.847 445.4C491.047 445.787 491.193 446.133 491.287 446.44L489.227 447.36C489.147 447.053 489.013 446.7 488.827 446.3C488.64 445.887 488.433 445.473 488.207 445.06C487.98 444.647 487.747 444.267 487.507 443.92ZM497.667 443.14L499.967 443.98C499.567 444.593 499.153 445.207 498.727 445.82C498.3 446.42 497.907 446.933 497.547 447.36L495.747 446.6C495.973 446.28 496.207 445.927 496.447 445.54C496.687 445.14 496.913 444.733 497.127 444.32C497.34 443.893 497.52 443.5 497.667 443.14ZM514.047 432.14H523.027V434.22H514.047V432.14ZM517.547 433.42L519.587 433.88C519.373 434.44 519.16 434.98 518.947 435.5C518.733 436.02 518.533 436.473 518.347 436.86L516.527 436.4C516.647 436.12 516.767 435.807 516.887 435.46C517.02 435.113 517.147 434.76 517.267 434.4C517.387 434.04 517.48 433.713 517.547 433.42ZM514.207 435.92H522.407V445.24H520.347V437.74H516.187V445.32H514.207V435.92ZM517.327 438.46H519.347C519.32 440.06 519.247 441.473 519.127 442.7C519.02 443.927 518.787 445 518.427 445.92C518.08 446.827 517.533 447.607 516.787 448.26C516.053 448.913 515.06 449.46 513.807 449.9C513.7 449.633 513.527 449.327 513.287 448.98C513.06 448.647 512.84 448.387 512.627 448.2C513.747 447.827 514.62 447.38 515.247 446.86C515.873 446.327 516.327 445.68 516.607 444.92C516.9 444.16 517.087 443.253 517.167 442.2C517.247 441.133 517.3 439.887 517.327 438.46ZM518.547 446.8L519.767 445.3C520.153 445.58 520.573 445.887 521.027 446.22C521.493 446.553 521.933 446.887 522.347 447.22C522.76 447.54 523.1 447.833 523.367 448.1L522.087 449.78C521.833 449.5 521.5 449.18 521.087 448.82C520.687 448.473 520.26 448.127 519.807 447.78C519.367 447.42 518.947 447.093 518.547 446.8ZM504.587 432.96H513.727V436.48H511.567V434.88H506.647V436.48H504.587V432.96ZM506.027 443.42H512.847V449.62H510.667V445.28H508.107V449.62H506.027V443.42ZM506.707 447.24H511.507V449.1H506.707V447.24ZM507.587 435.16L509.687 435.56C509.22 436.427 508.64 437.253 507.947 438.04C507.267 438.827 506.427 439.553 505.427 440.22C505.333 440.047 505.207 439.867 505.047 439.68C504.887 439.48 504.72 439.287 504.547 439.1C504.387 438.913 504.233 438.773 504.087 438.68C504.927 438.187 505.64 437.627 506.227 437C506.827 436.36 507.28 435.747 507.587 435.16ZM508.367 436.44H511.687V438.22H507.467L508.367 436.44ZM511.347 436.44H511.827L512.247 436.38L513.527 437.24C513.007 438.373 512.307 439.387 511.427 440.28C510.56 441.173 509.58 441.94 508.487 442.58C507.407 443.22 506.28 443.727 505.107 444.1C505.067 443.887 505 443.633 504.907 443.34C504.813 443.047 504.707 442.767 504.587 442.5C504.48 442.22 504.373 442 504.267 441.84C505.32 441.573 506.313 441.2 507.247 440.72C508.18 440.24 509.007 439.673 509.727 439.02C510.447 438.353 510.987 437.613 511.347 436.8V436.44ZM507.567 431.54L509.847 431.06C510.033 431.46 510.24 431.9 510.467 432.38C510.707 432.86 510.887 433.26 511.007 433.58L508.627 434.16C508.52 433.827 508.367 433.413 508.167 432.92C507.967 432.413 507.767 431.953 507.567 431.54ZM506.367 440.12L507.927 438.7C508.393 438.927 508.913 439.18 509.487 439.46C510.06 439.727 510.633 440.007 511.207 440.3C511.793 440.58 512.34 440.86 512.847 441.14C513.367 441.42 513.813 441.673 514.187 441.9L512.527 443.52C512.193 443.293 511.773 443.04 511.267 442.76C510.773 442.467 510.24 442.167 509.667 441.86C509.107 441.553 508.54 441.247 507.967 440.94C507.393 440.633 506.86 440.36 506.367 440.12Z" fill="white"/>
<path d="M213 470H208.322C195.067 470 184.322 459.255 184.322 446V352.5V255.949C184.322 245.364 176.491 236.41 166 235V235V235C176.491 233.59 184.322 224.636 184.322 214.051V117.5V24C184.322 10.7452 195.067 0 208.322 0H213" stroke="#1F32D6" stroke-width="2" stroke-linejoin="bevel"/>
<path d="M1.22 228.52H18.8V230.7H1.22V228.52ZM8.68 227H11.14V229.82H8.68V227ZM1.88 232.26H17.28V234.34H4.16V245.76H1.88V232.26ZM16.04 232.26H18.34V243.2C18.34 243.773 18.2667 244.233 18.12 244.58C17.9867 244.927 17.7267 245.2 17.34 245.4C16.94 245.573 16.4533 245.68 15.88 245.72C15.3067 245.773 14.6267 245.8 13.84 245.8C13.8 245.587 13.74 245.34 13.66 245.06C13.58 244.78 13.4867 244.5 13.38 244.22C13.2733 243.953 13.16 243.72 13.04 243.52C13.5733 243.533 14.0867 243.547 14.58 243.56C15.0867 243.56 15.4267 243.56 15.6 243.56C15.76 243.56 15.8733 243.533 15.94 243.48C16.0067 243.413 16.04 243.307 16.04 243.16V232.26ZM6.92 234.08H9.04C9 234.867 8.86667 235.553 8.64 236.14C8.41333 236.727 8.02 237.213 7.46 237.6C6.9 237.987 6.08667 238.307 5.02 238.56C4.94 238.293 4.78667 237.993 4.56 237.66C4.34667 237.327 4.14 237.067 3.94 236.88C4.76667 236.733 5.38667 236.547 5.8 236.32C6.21333 236.08 6.49333 235.78 6.64 235.42C6.8 235.06 6.89333 234.613 6.92 234.08ZM10.64 234.06H12.7V235.6C12.7 235.813 12.7267 235.947 12.78 236C12.8333 236.04 12.9467 236.06 13.12 236.06C13.16 236.06 13.2267 236.06 13.32 236.06C13.4133 236.06 13.5133 236.06 13.62 236.06C13.7267 236.06 13.8267 236.06 13.92 236.06C14.0267 236.06 14.1 236.06 14.14 236.06C14.26 236.06 14.3467 236.04 14.4 236C14.4667 235.947 14.5133 235.84 14.54 235.68C14.58 235.52 14.6067 235.28 14.62 234.96C14.8067 235.093 15.0733 235.227 15.42 235.36C15.78 235.48 16.0933 235.573 16.36 235.64C16.2667 236.493 16.0733 237.067 15.78 237.36C15.4867 237.653 15.0333 237.8 14.42 237.8C14.3267 237.8 14.2067 237.8 14.06 237.8C13.9133 237.8 13.7533 237.8 13.58 237.8C13.42 237.8 13.2667 237.8 13.12 237.8C12.9867 237.8 12.88 237.8 12.8 237.8C12.2133 237.8 11.76 237.733 11.44 237.6C11.1333 237.453 10.92 237.227 10.8 236.92C10.6933 236.6 10.64 236.167 10.64 235.62V234.06ZM6.12 238.54H8.26V244.86H6.12V238.54ZM7.44 238.54H14.02V243.78H7.44V242H11.86V240.32H7.44V238.54ZM4.8 230.66L7.18 230.26C7.36667 230.567 7.54667 230.92 7.72 231.32C7.89333 231.707 8.02 232.047 8.1 232.34L5.6 232.84C5.54667 232.547 5.44 232.193 5.28 231.78C5.13333 231.367 4.97333 230.993 4.8 230.66ZM12.62 230.24L15.28 230.64C15.04 231.067 14.8133 231.467 14.6 231.84C14.4 232.2 14.2067 232.507 14.02 232.76L11.64 232.36C11.8133 232.053 11.9933 231.7 12.18 231.3C12.3667 230.9 12.5133 230.547 12.62 230.24ZM22.88 230.02H25.4V234.56C25.4 235.4 25.3667 236.32 25.3 237.32C25.2333 238.307 25.1 239.32 24.9 240.36C24.7133 241.387 24.4333 242.38 24.06 243.34C23.7 244.3 23.2267 245.167 22.64 245.94C22.4933 245.793 22.2867 245.62 22.02 245.42C21.7667 245.233 21.5 245.053 21.22 244.88C20.9533 244.707 20.72 244.573 20.52 244.48C21.0533 243.773 21.48 243 21.8 242.16C22.12 241.307 22.3533 240.44 22.5 239.56C22.66 238.667 22.76 237.793 22.8 236.94C22.8533 236.087 22.88 235.293 22.88 234.56V230.02ZM28.38 227.5L30.78 226.9C30.9933 227.327 31.2067 227.8 31.42 228.32C31.6333 228.827 31.8 229.28 31.92 229.68L29.46 230.38C29.3533 229.993 29.1933 229.527 28.98 228.98C28.78 228.433 28.58 227.94 28.38 227.5ZM24.46 230.02H37.34V238.68H34.88V232.26H24.46V230.02ZM24.52 235.4H36.1V237.64H24.52V235.4ZM50.6 242.68L51.72 240.9C52.5867 241.14 53.46 241.427 54.34 241.76C55.22 242.08 56.04 242.42 56.8 242.78C57.5733 243.127 58.2333 243.467 58.78 243.8L57.32 245.7C56.8133 245.34 56.2 244.98 55.48 244.62C54.76 244.26 53.98 243.913 53.14 243.58C52.3 243.233 51.4533 242.933 50.6 242.68ZM48.2 227.5L50.62 226.76C50.8867 227.173 51.1467 227.633 51.4 228.14C51.6667 228.647 51.86 229.093 51.98 229.48L49.42 230.3C49.3267 229.927 49.16 229.48 48.92 228.96C48.68 228.427 48.44 227.94 48.2 227.5ZM41.54 228.88H58.54V233.48H56.02V231.12H43.92V233.48H41.54V228.88ZM49.66 231.98H52.2C52.1467 233.393 52.06 234.713 51.94 235.94C51.8333 237.167 51.6133 238.287 51.28 239.3C50.9467 240.313 50.4467 241.233 49.78 242.06C49.1133 242.873 48.22 243.587 47.1 244.2C45.9933 244.827 44.58 245.347 42.86 245.76C42.7533 245.44 42.5667 245.08 42.3 244.68C42.0333 244.28 41.7733 243.953 41.52 243.7C43.0933 243.353 44.38 242.927 45.38 242.42C46.38 241.913 47.16 241.32 47.72 240.64C48.2933 239.96 48.7067 239.193 48.96 238.34C49.2267 237.473 49.4 236.513 49.48 235.46C49.56 234.393 49.62 233.233 49.66 231.98ZM41.36 238.52H58.76V240.52H41.36V238.52ZM44.64 233.1L46.04 231.54C46.3867 231.7 46.7467 231.9 47.12 232.14C47.4933 232.38 47.8467 232.627 48.18 232.88C48.5267 233.133 48.8067 233.373 49.02 233.6L47.52 235.32C47.3333 235.093 47.08 234.847 46.76 234.58C46.44 234.313 46.0933 234.047 45.72 233.78C45.3467 233.513 44.9867 233.287 44.64 233.1ZM42.6 236.1L43.96 234.5C44.32 234.66 44.6933 234.853 45.08 235.08C45.4667 235.293 45.8333 235.527 46.18 235.78C46.5267 236.02 46.8067 236.247 47.02 236.46L45.58 238.26C45.3667 238.033 45.0933 237.793 44.76 237.54C44.44 237.273 44.0867 237.013 43.7 236.76C43.3267 236.507 42.96 236.287 42.6 236.1ZM60.46 239.56C61.2333 239.4 62.1667 239.187 63.26 238.92C64.3533 238.653 65.4733 238.387 66.62 238.12L66.9 240.24C65.9267 240.547 64.9533 240.853 63.98 241.16C63.02 241.467 62.1267 241.747 61.3 242L60.46 239.56ZM65.6 227.14H67.96V245.78H65.6V227.14ZM61.72 229.34H64V240.1H61.72V229.34ZM71.02 230.58H79.48V232.84H71.02V230.58ZM71.04 227L73.5 227.48C73.22 228.72 72.8667 229.927 72.44 231.1C72.0267 232.273 71.5467 233.367 71 234.38C70.4667 235.393 69.8733 236.273 69.22 237.02C69.1 236.86 68.9267 236.667 68.7 236.44C68.4733 236.213 68.2333 235.987 67.98 235.76C67.74 235.533 67.5333 235.353 67.36 235.22C67.96 234.593 68.4933 233.847 68.96 232.98C69.44 232.113 69.8467 231.167 70.18 230.14C70.5267 229.113 70.8133 228.067 71.04 227ZM76.06 231.8L78.48 232.14C78.0533 234.393 77.4533 236.393 76.68 238.14C75.92 239.873 74.9267 241.38 73.7 242.66C72.4867 243.927 70.9933 244.993 69.22 245.86C69.1533 245.66 69.04 245.42 68.88 245.14C68.72 244.873 68.5467 244.6 68.36 244.32C68.1867 244.053 68.0267 243.833 67.88 243.66C69.4933 242.967 70.8467 242.08 71.94 241C73.0333 239.907 73.9133 238.6 74.58 237.08C75.2467 235.547 75.74 233.787 76.06 231.8ZM71.96 232.12C72.3067 233.893 72.8 235.547 73.44 237.08C74.0933 238.6 74.9333 239.927 75.96 241.06C76.9867 242.193 78.2333 243.073 79.7 243.7C79.5267 243.86 79.3267 244.06 79.1 244.3C78.8867 244.553 78.6867 244.807 78.5 245.06C78.3133 245.327 78.16 245.573 78.04 245.8C76.4667 245.013 75.1467 243.98 74.08 242.7C73.0133 241.42 72.1333 239.927 71.44 238.22C70.76 236.5 70.2067 234.607 69.78 232.54L71.96 232.12ZM94.88 239.74L96.74 238.68C97.14 239.133 97.5267 239.627 97.9 240.16C98.2733 240.68 98.6 241.2 98.88 241.72C99.1733 242.24 99.3933 242.72 99.54 243.16L97.52 244.34C97.4133 243.913 97.22 243.433 96.94 242.9C96.6733 242.367 96.36 241.827 96 241.28C95.64 240.72 95.2667 240.207 94.88 239.74ZM88.38 239L90.06 237.66C90.5 237.913 90.9267 238.213 91.34 238.56C91.7667 238.893 92.1667 239.24 92.54 239.6C92.9133 239.947 93.2133 240.26 93.44 240.54L91.7 242.08C91.46 241.773 91.16 241.433 90.8 241.06C90.44 240.687 90.0467 240.32 89.62 239.96C89.2067 239.587 88.7933 239.267 88.38 239ZM85.32 238.98H87.88V242.68C87.88 243 87.9667 243.207 88.14 243.3C88.3133 243.38 88.7 243.42 89.3 243.42C89.4067 243.42 89.5667 243.42 89.78 243.42C90.0067 243.42 90.2533 243.42 90.52 243.42C90.8 243.42 91.08 243.42 91.36 243.42C91.6533 243.42 91.92 243.42 92.16 243.42C92.4 243.42 92.5933 243.42 92.74 243.42C93.0467 243.42 93.28 243.38 93.44 243.3C93.6 243.207 93.7133 243.033 93.78 242.78C93.86 242.513 93.92 242.127 93.96 241.62C94.1333 241.74 94.3533 241.86 94.62 241.98C94.8867 242.087 95.16 242.187 95.44 242.28C95.7333 242.373 95.9933 242.44 96.22 242.48C96.1267 243.307 95.9667 243.947 95.74 244.4C95.5133 244.853 95.1733 245.167 94.72 245.34C94.28 245.513 93.6867 245.6 92.94 245.6C92.82 245.6 92.6267 245.6 92.36 245.6C92.0933 245.6 91.7933 245.6 91.46 245.6C91.14 245.6 90.8133 245.6 90.48 245.6C90.16 245.6 89.8667 245.6 89.6 245.6C89.3467 245.6 89.16 245.6 89.04 245.6C88.0533 245.6 87.2867 245.513 86.74 245.34C86.2067 245.167 85.8333 244.867 85.62 244.44C85.42 244.013 85.32 243.433 85.32 242.7V238.98ZM82.26 239.26L84.56 239.68C84.44 240.56 84.2333 241.467 83.94 242.4C83.6467 243.32 83.2867 244.107 82.86 244.76L80.62 243.74C80.8733 243.393 81.1067 242.973 81.32 242.48C81.5333 241.987 81.72 241.46 81.88 240.9C82.04 240.34 82.1667 239.793 82.26 239.26ZM84.7 228L86.76 227.02C87.1867 227.527 87.5933 228.08 87.98 228.68C88.38 229.28 88.6533 229.833 88.8 230.34L86.58 231.4C86.5 231.093 86.36 230.74 86.16 230.34C85.96 229.94 85.7333 229.54 85.48 229.14C85.2267 228.727 84.9667 228.347 84.7 228ZM93.2 226.96L95.7 228C95.2333 228.787 94.76 229.587 94.28 230.4C93.8 231.2 93.3467 231.887 92.92 232.46L90.98 231.54C91.2467 231.127 91.5133 230.66 91.78 230.14C92.06 229.607 92.3267 229.067 92.58 228.52C92.8333 227.96 93.04 227.44 93.2 226.96ZM85.96 233.12V235.64H94.08V233.12H85.96ZM83.34 230.88H96.8V237.88H83.34V230.88ZM109.92 229.3C109.373 230.06 108.68 230.847 107.84 231.66C107.013 232.473 106.093 233.253 105.08 234C104.08 234.747 103.033 235.413 101.94 236C101.833 235.8 101.693 235.58 101.52 235.34C101.36 235.1 101.18 234.867 100.98 234.64C100.793 234.413 100.613 234.213 100.44 234.04C101.587 233.493 102.687 232.82 103.74 232.02C104.793 231.207 105.733 230.36 106.56 229.48C107.4 228.6 108.067 227.753 108.56 226.94H111.06C111.607 227.7 112.207 228.427 112.86 229.12C113.513 229.813 114.213 230.453 114.96 231.04C115.707 231.627 116.473 232.153 117.26 232.62C118.047 233.087 118.84 233.48 119.64 233.8C119.333 234.107 119.047 234.453 118.78 234.84C118.513 235.227 118.267 235.6 118.04 235.96C117.28 235.56 116.507 235.1 115.72 234.58C114.947 234.06 114.2 233.507 113.48 232.92C112.76 232.32 112.093 231.713 111.48 231.1C110.867 230.487 110.347 229.887 109.92 229.3ZM104.92 233H114.98V235.1H104.92V233ZM102.52 237.08H117.34V239.16H102.52V237.08ZM101.52 243.16H118.52V245.22H101.52V243.16ZM108.62 233.84H111.16V244.2H108.62V233.84ZM103.78 239.92L105.7 239.12C105.953 239.453 106.2 239.82 106.44 240.22C106.693 240.62 106.92 241.013 107.12 241.4C107.32 241.787 107.467 242.133 107.56 242.44L105.5 243.36C105.42 243.053 105.287 242.7 105.1 242.3C104.913 241.887 104.707 241.473 104.48 241.06C104.253 240.647 104.02 240.267 103.78 239.92ZM113.94 239.14L116.24 239.98C115.84 240.593 115.427 241.207 115 241.82C114.573 242.42 114.18 242.933 113.82 243.36L112.02 242.6C112.247 242.28 112.48 241.927 112.72 241.54C112.96 241.14 113.187 240.733 113.4 240.32C113.613 239.893 113.793 239.5 113.94 239.14ZM130.32 228.14H139.3V230.22H130.32V228.14ZM133.82 229.42L135.86 229.88C135.647 230.44 135.433 230.98 135.22 231.5C135.007 232.02 134.807 232.473 134.62 232.86L132.8 232.4C132.92 232.12 133.04 231.807 133.16 231.46C133.293 231.113 133.42 230.76 133.54 230.4C133.66 230.04 133.753 229.713 133.82 229.42ZM130.48 231.92H138.68V241.24H136.62V233.74H132.46V241.32H130.48V231.92ZM133.6 234.46H135.62C135.593 236.06 135.52 237.473 135.4 238.7C135.293 239.927 135.06 241 134.7 241.92C134.353 242.827 133.807 243.607 133.06 244.26C132.327 244.913 131.333 245.46 130.08 245.9C129.973 245.633 129.8 245.327 129.56 244.98C129.333 244.647 129.113 244.387 128.9 244.2C130.02 243.827 130.893 243.38 131.52 242.86C132.147 242.327 132.6 241.68 132.88 240.92C133.173 240.16 133.36 239.253 133.44 238.2C133.52 237.133 133.573 235.887 133.6 234.46ZM134.82 242.8L136.04 241.3C136.427 241.58 136.847 241.887 137.3 242.22C137.767 242.553 138.207 242.887 138.62 243.22C139.033 243.54 139.373 243.833 139.64 244.1L138.36 245.78C138.107 245.5 137.773 245.18 137.36 244.82C136.96 244.473 136.533 244.127 136.08 243.78C135.64 243.42 135.22 243.093 134.82 242.8ZM120.86 228.96H130V232.48H127.84V230.88H122.92V232.48H120.86V228.96ZM122.3 239.42H129.12V245.62H126.94V241.28H124.38V245.62H122.3V239.42ZM122.98 243.24H127.78V245.1H122.98V243.24ZM123.86 231.16L125.96 231.56C125.493 232.427 124.913 233.253 124.22 234.04C123.54 234.827 122.7 235.553 121.7 236.22C121.607 236.047 121.48 235.867 121.32 235.68C121.16 235.48 120.993 235.287 120.82 235.1C120.66 234.913 120.507 234.773 120.36 234.68C121.2 234.187 121.913 233.627 122.5 233C123.1 232.36 123.553 231.747 123.86 231.16ZM124.64 232.44H127.96V234.22H123.74L124.64 232.44ZM127.62 232.44H128.1L128.52 232.38L129.8 233.24C129.28 234.373 128.58 235.387 127.7 236.28C126.833 237.173 125.853 237.94 124.76 238.58C123.68 239.22 122.553 239.727 121.38 240.1C121.34 239.887 121.273 239.633 121.18 239.34C121.087 239.047 120.98 238.767 120.86 238.5C120.753 238.22 120.647 238 120.54 237.84C121.593 237.573 122.587 237.2 123.52 236.72C124.453 236.24 125.28 235.673 126 235.02C126.72 234.353 127.26 233.613 127.62 232.8V232.44ZM123.84 227.54L126.12 227.06C126.307 227.46 126.513 227.9 126.74 228.38C126.98 228.86 127.16 229.26 127.28 229.58L124.9 230.16C124.793 229.827 124.64 229.413 124.44 228.92C124.24 228.413 124.04 227.953 123.84 227.54ZM122.64 236.12L124.2 234.7C124.667 234.927 125.187 235.18 125.76 235.46C126.333 235.727 126.907 236.007 127.48 236.3C128.067 236.58 128.613 236.86 129.12 237.14C129.64 237.42 130.087 237.673 130.46 237.9L128.8 239.52C128.467 239.293 128.047 239.04 127.54 238.76C127.047 238.467 126.513 238.167 125.94 237.86C125.38 237.553 124.813 237.247 124.24 236.94C123.667 236.633 123.133 236.36 122.64 236.12Z" fill="#1F32D6"/>
</g>
<defs>
<clipPath id="clip0_120_2">
<rect width="545" height="470" fill="white"/>
</clipPath>
</defs>
</svg>
