<svg width="419" height="321" viewBox="0 0 419 321" fill="none" xmlns="http://www.w3.org/2000/svg">
<g clip-path="url(#clip0_102_2)">
<rect width="419" height="321" fill="white"/>
<rect x="187" width="232" height="321" fill="#1F32D6" fill-opacity="0.08"/>
<rect x="187" width="232" height="321" stroke="#1F32D6" stroke-width="2"/>
<path d="M244.22 152.52H261.8V154.7H244.22V152.52ZM251.68 151H254.14V153.82H251.68V151ZM244.88 156.26H260.28V158.34H247.16V169.76H244.88V156.26ZM259.04 156.26H261.34V167.2C261.34 167.773 261.267 168.233 261.12 168.58C260.987 168.927 260.727 169.2 260.34 169.4C259.94 169.573 259.453 169.68 258.88 169.72C258.307 169.773 257.627 169.8 256.84 169.8C256.8 169.587 256.74 169.34 256.66 169.06C256.58 168.78 256.487 168.5 256.38 168.22C256.273 167.953 256.16 167.72 256.04 167.52C256.573 167.533 257.087 167.547 257.58 167.56C258.087 167.56 258.427 167.56 258.6 167.56C258.76 167.56 258.873 167.533 258.94 167.48C259.007 167.413 259.04 167.307 259.04 167.16V156.26ZM249.92 158.08H252.04C252 158.867 251.867 159.553 251.64 160.14C251.413 160.727 251.02 161.213 250.46 161.6C249.9 161.987 249.087 162.307 248.02 162.56C247.94 162.293 247.787 161.993 247.56 161.66C247.347 161.327 247.14 161.067 246.94 160.88C247.767 160.733 248.387 160.547 248.8 160.32C249.213 160.08 249.493 159.78 249.64 159.42C249.8 159.06 249.893 158.613 249.92 158.08ZM253.64 158.06H255.7V159.6C255.7 159.813 255.727 159.947 255.78 160C255.833 160.04 255.947 160.06 256.12 160.06C256.16 160.06 256.227 160.06 256.32 160.06C256.413 160.06 256.513 160.06 256.62 160.06C256.727 160.06 256.827 160.06 256.92 160.06C257.027 160.06 257.1 160.06 257.14 160.06C257.26 160.06 257.347 160.04 257.4 160C257.467 159.947 257.513 159.84 257.54 159.68C257.58 159.52 257.607 159.28 257.62 158.96C257.807 159.093 258.073 159.227 258.42 159.36C258.78 159.48 259.093 159.573 259.36 159.64C259.267 160.493 259.073 161.067 258.78 161.36C258.487 161.653 258.033 161.8 257.42 161.8C257.327 161.8 257.207 161.8 257.06 161.8C256.913 161.8 256.753 161.8 256.58 161.8C256.42 161.8 256.267 161.8 256.12 161.8C255.987 161.8 255.88 161.8 255.8 161.8C255.213 161.8 254.76 161.733 254.44 161.6C254.133 161.453 253.92 161.227 253.8 160.92C253.693 160.6 253.64 160.167 253.64 159.62V158.06ZM249.12 162.54H251.26V168.86H249.12V162.54ZM250.44 162.54H257.02V167.78H250.44V166H254.86V164.32H250.44V162.54ZM247.8 154.66L250.18 154.26C250.367 154.567 250.547 154.92 250.72 155.32C250.893 155.707 251.02 156.047 251.1 156.34L248.6 156.84C248.547 156.547 248.44 156.193 248.28 155.78C248.133 155.367 247.973 154.993 247.8 154.66ZM255.62 154.24L258.28 154.64C258.04 155.067 257.813 155.467 257.6 155.84C257.4 156.2 257.207 156.507 257.02 156.76L254.64 156.36C254.813 156.053 254.993 155.7 255.18 155.3C255.367 154.9 255.513 154.547 255.62 154.24ZM265.88 154.02H268.4V158.56C268.4 159.4 268.367 160.32 268.3 161.32C268.233 162.307 268.1 163.32 267.9 164.36C267.713 165.387 267.433 166.38 267.06 167.34C266.7 168.3 266.227 169.167 265.64 169.94C265.493 169.793 265.287 169.62 265.02 169.42C264.767 169.233 264.5 169.053 264.22 168.88C263.953 168.707 263.72 168.573 263.52 168.48C264.053 167.773 264.48 167 264.8 166.16C265.12 165.307 265.353 164.44 265.5 163.56C265.66 162.667 265.76 161.793 265.8 160.94C265.853 160.087 265.88 159.293 265.88 158.56V154.02ZM271.38 151.5L273.78 150.9C273.993 151.327 274.207 151.8 274.42 152.32C274.633 152.827 274.8 153.28 274.92 153.68L272.46 154.38C272.353 153.993 272.193 153.527 271.98 152.98C271.78 152.433 271.58 151.94 271.38 151.5ZM267.46 154.02H280.34V162.68H277.88V156.26H267.46V154.02ZM267.52 159.4H279.1V161.64H267.52V159.4ZM293.6 166.68L294.72 164.9C295.587 165.14 296.46 165.427 297.34 165.76C298.22 166.08 299.04 166.42 299.8 166.78C300.573 167.127 301.233 167.467 301.78 167.8L300.32 169.7C299.813 169.34 299.2 168.98 298.48 168.62C297.76 168.26 296.98 167.913 296.14 167.58C295.3 167.233 294.453 166.933 293.6 166.68ZM291.2 151.5L293.62 150.76C293.887 151.173 294.147 151.633 294.4 152.14C294.667 152.647 294.86 153.093 294.98 153.48L292.42 154.3C292.327 153.927 292.16 153.48 291.92 152.96C291.68 152.427 291.44 151.94 291.2 151.5ZM284.54 152.88H301.54V157.48H299.02V155.12H286.92V157.48H284.54V152.88ZM292.66 155.98H295.2C295.147 157.393 295.06 158.713 294.94 159.94C294.833 161.167 294.613 162.287 294.28 163.3C293.947 164.313 293.447 165.233 292.78 166.06C292.113 166.873 291.22 167.587 290.1 168.2C288.993 168.827 287.58 169.347 285.86 169.76C285.753 169.44 285.567 169.08 285.3 168.68C285.033 168.28 284.773 167.953 284.52 167.7C286.093 167.353 287.38 166.927 288.38 166.42C289.38 165.913 290.16 165.32 290.72 164.64C291.293 163.96 291.707 163.193 291.96 162.34C292.227 161.473 292.4 160.513 292.48 159.46C292.56 158.393 292.62 157.233 292.66 155.98ZM284.36 162.52H301.76V164.52H284.36V162.52ZM287.64 157.1L289.04 155.54C289.387 155.7 289.747 155.9 290.12 156.14C290.493 156.38 290.847 156.627 291.18 156.88C291.527 157.133 291.807 157.373 292.02 157.6L290.52 159.32C290.333 159.093 290.08 158.847 289.76 158.58C289.44 158.313 289.093 158.047 288.72 157.78C288.347 157.513 287.987 157.287 287.64 157.1ZM285.6 160.1L286.96 158.5C287.32 158.66 287.693 158.853 288.08 159.08C288.467 159.293 288.833 159.527 289.18 159.78C289.527 160.02 289.807 160.247 290.02 160.46L288.58 162.26C288.367 162.033 288.093 161.793 287.76 161.54C287.44 161.273 287.087 161.013 286.7 160.76C286.327 160.507 285.96 160.287 285.6 160.1ZM303.46 163.56C304.233 163.4 305.167 163.187 306.26 162.92C307.353 162.653 308.473 162.387 309.62 162.12L309.9 164.24C308.927 164.547 307.953 164.853 306.98 165.16C306.02 165.467 305.127 165.747 304.3 166L303.46 163.56ZM308.6 151.14H310.96V169.78H308.6V151.14ZM304.72 153.34H307V164.1H304.72V153.34ZM314.02 154.58H322.48V156.84H314.02V154.58ZM314.04 151L316.5 151.48C316.22 152.72 315.867 153.927 315.44 155.1C315.027 156.273 314.547 157.367 314 158.38C313.467 159.393 312.873 160.273 312.22 161.02C312.1 160.86 311.927 160.667 311.7 160.44C311.473 160.213 311.233 159.987 310.98 159.76C310.74 159.533 310.533 159.353 310.36 159.22C310.96 158.593 311.493 157.847 311.96 156.98C312.44 156.113 312.847 155.167 313.18 154.14C313.527 153.113 313.813 152.067 314.04 151ZM319.06 155.8L321.48 156.14C321.053 158.393 320.453 160.393 319.68 162.14C318.92 163.873 317.927 165.38 316.7 166.66C315.487 167.927 313.993 168.993 312.22 169.86C312.153 169.66 312.04 169.42 311.88 169.14C311.72 168.873 311.547 168.6 311.36 168.32C311.187 168.053 311.027 167.833 310.88 167.66C312.493 166.967 313.847 166.08 314.94 165C316.033 163.907 316.913 162.6 317.58 161.08C318.247 159.547 318.74 157.787 319.06 155.8ZM314.96 156.12C315.307 157.893 315.8 159.547 316.44 161.08C317.093 162.6 317.933 163.927 318.96 165.06C319.987 166.193 321.233 167.073 322.7 167.7C322.527 167.86 322.327 168.06 322.1 168.3C321.887 168.553 321.687 168.807 321.5 169.06C321.313 169.327 321.16 169.573 321.04 169.8C319.467 169.013 318.147 167.98 317.08 166.7C316.013 165.42 315.133 163.927 314.44 162.22C313.76 160.5 313.207 158.607 312.78 156.54L314.96 156.12ZM332.92 153.3C332.373 154.06 331.68 154.847 330.84 155.66C330.013 156.473 329.093 157.253 328.08 158C327.08 158.747 326.033 159.413 324.94 160C324.833 159.8 324.693 159.58 324.52 159.34C324.36 159.1 324.18 158.867 323.98 158.64C323.793 158.413 323.613 158.213 323.44 158.04C324.587 157.493 325.687 156.82 326.74 156.02C327.793 155.207 328.733 154.36 329.56 153.48C330.4 152.6 331.067 151.753 331.56 150.94H334.06C334.607 151.7 335.207 152.427 335.86 153.12C336.513 153.813 337.213 154.453 337.96 155.04C338.707 155.627 339.473 156.153 340.26 156.62C341.047 157.087 341.84 157.48 342.64 157.8C342.333 158.107 342.047 158.453 341.78 158.84C341.513 159.227 341.267 159.6 341.04 159.96C340.28 159.56 339.507 159.1 338.72 158.58C337.947 158.06 337.2 157.507 336.48 156.92C335.76 156.32 335.093 155.713 334.48 155.1C333.867 154.487 333.347 153.887 332.92 153.3ZM327.92 157H337.98V159.1H327.92V157ZM325.52 161.08H340.34V163.16H325.52V161.08ZM324.52 167.16H341.52V169.22H324.52V167.16ZM331.62 157.84H334.16V168.2H331.62V157.84ZM326.78 163.92L328.7 163.12C328.953 163.453 329.2 163.82 329.44 164.22C329.693 164.62 329.92 165.013 330.12 165.4C330.32 165.787 330.467 166.133 330.56 166.44L328.5 167.36C328.42 167.053 328.287 166.7 328.1 166.3C327.913 165.887 327.707 165.473 327.48 165.06C327.253 164.647 327.02 164.267 326.78 163.92ZM336.94 163.14L339.24 163.98C338.84 164.593 338.427 165.207 338 165.82C337.573 166.42 337.18 166.933 336.82 167.36L335.02 166.6C335.247 166.28 335.48 165.927 335.72 165.54C335.96 165.14 336.187 164.733 336.4 164.32C336.613 163.893 336.793 163.5 336.94 163.14ZM353.32 152.14H362.3V154.22H353.32V152.14ZM356.82 153.42L358.86 153.88C358.647 154.44 358.433 154.98 358.22 155.5C358.007 156.02 357.807 156.473 357.62 156.86L355.8 156.4C355.92 156.12 356.04 155.807 356.16 155.46C356.293 155.113 356.42 154.76 356.54 154.4C356.66 154.04 356.753 153.713 356.82 153.42ZM353.48 155.92H361.68V165.24H359.62V157.74H355.46V165.32H353.48V155.92ZM356.6 158.46H358.62C358.593 160.06 358.52 161.473 358.4 162.7C358.293 163.927 358.06 165 357.7 165.92C357.353 166.827 356.807 167.607 356.06 168.26C355.327 168.913 354.333 169.46 353.08 169.9C352.973 169.633 352.8 169.327 352.56 168.98C352.333 168.647 352.113 168.387 351.9 168.2C353.02 167.827 353.893 167.38 354.52 166.86C355.147 166.327 355.6 165.68 355.88 164.92C356.173 164.16 356.36 163.253 356.44 162.2C356.52 161.133 356.573 159.887 356.6 158.46ZM357.82 166.8L359.04 165.3C359.427 165.58 359.847 165.887 360.3 166.22C360.767 166.553 361.207 166.887 361.62 167.22C362.033 167.54 362.373 167.833 362.64 168.1L361.36 169.78C361.107 169.5 360.773 169.18 360.36 168.82C359.96 168.473 359.533 168.127 359.08 167.78C358.64 167.42 358.22 167.093 357.82 166.8ZM343.86 152.96H353V156.48H350.84V154.88H345.92V156.48H343.86V152.96ZM345.3 163.42H352.12V169.62H349.94V165.28H347.38V169.62H345.3V163.42ZM345.98 167.24H350.78V169.1H345.98V167.24ZM346.86 155.16L348.96 155.56C348.493 156.427 347.913 157.253 347.22 158.04C346.54 158.827 345.7 159.553 344.7 160.22C344.607 160.047 344.48 159.867 344.32 159.68C344.16 159.48 343.993 159.287 343.82 159.1C343.66 158.913 343.507 158.773 343.36 158.68C344.2 158.187 344.913 157.627 345.5 157C346.1 156.36 346.553 155.747 346.86 155.16ZM347.64 156.44H350.96V158.22H346.74L347.64 156.44ZM350.62 156.44H351.1L351.52 156.38L352.8 157.24C352.28 158.373 351.58 159.387 350.7 160.28C349.833 161.173 348.853 161.94 347.76 162.58C346.68 163.22 345.553 163.727 344.38 164.1C344.34 163.887 344.273 163.633 344.18 163.34C344.087 163.047 343.98 162.767 343.86 162.5C343.753 162.22 343.647 162 343.54 161.84C344.593 161.573 345.587 161.2 346.52 160.72C347.453 160.24 348.28 159.673 349 159.02C349.72 158.353 350.26 157.613 350.62 156.8V156.44ZM346.84 151.54L349.12 151.06C349.307 151.46 349.513 151.9 349.74 152.38C349.98 152.86 350.16 153.26 350.28 153.58L347.9 154.16C347.793 153.827 347.64 153.413 347.44 152.92C347.24 152.413 347.04 151.953 346.84 151.54ZM345.64 160.12L347.2 158.7C347.667 158.927 348.187 159.18 348.76 159.46C349.333 159.727 349.907 160.007 350.48 160.3C351.067 160.58 351.613 160.86 352.12 161.14C352.64 161.42 353.087 161.673 353.46 161.9L351.8 163.52C351.467 163.293 351.047 163.04 350.54 162.76C350.047 162.467 349.513 162.167 348.94 161.86C348.38 161.553 347.813 161.247 347.24 160.94C346.667 160.633 346.133 160.36 345.64 160.12Z" fill="#1F32D6"/>
<rect x="187" y="265" width="232" height="56" fill="#7984E6"/>
<rect x="187" y="265" width="232" height="56" stroke="#1F32D6" stroke-width="2"/>
<path d="M253.58 284.16H270.56V286.44H253.58V284.16ZM252.92 291.34H271.14V293.64H252.92V291.34ZM264.5 285.48H267.02V301.82H264.5V285.48ZM257.44 285.5H259.92V290.76C259.92 291.72 259.867 292.707 259.76 293.72C259.653 294.72 259.427 295.707 259.08 296.68C258.747 297.653 258.233 298.587 257.54 299.48C256.86 300.36 255.947 301.16 254.8 301.88C254.653 301.693 254.467 301.487 254.24 301.26C254.013 301.033 253.773 300.813 253.52 300.6C253.28 300.387 253.06 300.213 252.86 300.08C253.887 299.467 254.707 298.787 255.32 298.04C255.933 297.28 256.393 296.5 256.7 295.7C257.007 294.887 257.207 294.06 257.3 293.22C257.393 292.38 257.44 291.553 257.44 290.74V285.5ZM280.58 291.98C281.433 294.033 282.773 295.707 284.6 297C286.427 298.293 288.753 299.173 291.58 299.64C291.42 299.8 291.24 300.013 291.04 300.28C290.84 300.547 290.653 300.813 290.48 301.08C290.32 301.36 290.187 301.607 290.08 301.82C288.107 301.42 286.387 300.813 284.92 300C283.453 299.187 282.193 298.167 281.14 296.94C280.1 295.7 279.227 294.253 278.52 292.6L280.58 291.98ZM287.08 291.18H287.56L288 291.08L289.68 291.86C289.213 293.287 288.6 294.54 287.84 295.62C287.08 296.7 286.193 297.64 285.18 298.44C284.18 299.24 283.073 299.913 281.86 300.46C280.66 301.007 279.38 301.46 278.02 301.82C277.887 301.5 277.693 301.133 277.44 300.72C277.2 300.307 276.967 299.967 276.74 299.7C277.967 299.447 279.127 299.087 280.22 298.62C281.313 298.153 282.313 297.587 283.22 296.92C284.127 296.253 284.907 295.473 285.56 294.58C286.213 293.687 286.72 292.687 287.08 291.58V291.18ZM279.82 291.18H287.42V293.5H279.14L279.82 291.18ZM280.8 282.86L283.5 283.3C283.233 285.287 282.873 287.133 282.42 288.84C281.967 290.533 281.38 292.093 280.66 293.52C279.953 294.933 279.067 296.2 278 297.32C276.933 298.44 275.647 299.413 274.14 300.24C274.047 300.067 273.893 299.86 273.68 299.62C273.48 299.367 273.26 299.12 273.02 298.88C272.793 298.64 272.58 298.447 272.38 298.3C274.193 297.34 275.66 296.113 276.78 294.62C277.913 293.113 278.793 291.373 279.42 289.4C280.06 287.427 280.52 285.247 280.8 282.86ZM285.36 284.18L287.22 283.08C287.473 283.347 287.753 283.653 288.06 284C288.367 284.333 288.66 284.66 288.94 284.98C289.22 285.3 289.453 285.58 289.64 285.82L287.68 287.08C287.52 286.827 287.307 286.533 287.04 286.2C286.773 285.867 286.487 285.527 286.18 285.18C285.887 284.82 285.613 284.487 285.36 284.18ZM274.68 289.98C274.64 289.82 274.567 289.607 274.46 289.34C274.367 289.073 274.273 288.8 274.18 288.52C274.087 288.24 273.993 288.007 273.9 287.82C274.047 287.767 274.193 287.673 274.34 287.54C274.487 287.393 274.627 287.207 274.76 286.98C274.84 286.847 274.967 286.6 275.14 286.24C275.313 285.88 275.493 285.453 275.68 284.96C275.867 284.467 276.027 283.953 276.16 283.42L278.68 283.82C278.507 284.407 278.293 285 278.04 285.6C277.787 286.2 277.52 286.767 277.24 287.3C276.973 287.82 276.72 288.273 276.48 288.66V288.7C276.48 288.7 276.387 288.747 276.2 288.84C276.027 288.92 275.82 289.027 275.58 289.16C275.34 289.293 275.127 289.433 274.94 289.58C274.767 289.727 274.68 289.86 274.68 289.98ZM274.68 289.98V288.24L276.1 287.24H290.92L290.9 289.54H276.78C276.247 289.54 275.78 289.58 275.38 289.66C274.993 289.727 274.76 289.833 274.68 289.98ZM293 289.08H311V291.18H293V289.08ZM294.72 285.16H306.16V287.24H294.72V285.16ZM298.26 296.04H307.18V297.86H298.26V296.04ZM298.26 299.2H307.18V301.22H298.26V299.2ZM299.44 283H301.82V290.26H299.44V283ZM308.24 283.58L310.3 284.66C309.007 286.473 307.487 288.127 305.74 289.62C303.993 291.113 302.107 292.433 300.08 293.58C298.067 294.727 295.98 295.7 293.82 296.5C293.727 296.327 293.593 296.12 293.42 295.88C293.247 295.627 293.06 295.373 292.86 295.12C292.673 294.867 292.507 294.667 292.36 294.52C294.533 293.827 296.607 292.947 298.58 291.88C300.567 290.813 302.38 289.58 304.02 288.18C305.673 286.78 307.08 285.247 308.24 283.58ZM296.9 292.78H308.7V301.72H306.2V294.76H299.3V301.8H296.9V292.78ZM315.54 286.56H327.46V285.64H314.1V284.04H329.62V288.14H315.54V286.56ZM315.14 288.98H329.42V290.56H314.7L315.14 288.98ZM328.64 288.98H330.88C330.88 288.98 330.873 289.06 330.86 289.22C330.86 289.38 330.86 289.52 330.86 289.64C330.82 290.347 330.76 290.9 330.68 291.3C330.6 291.687 330.473 291.987 330.3 292.2C330.153 292.36 329.973 292.48 329.76 292.56C329.56 292.627 329.353 292.673 329.14 292.7C328.94 292.713 328.667 292.72 328.32 292.72C327.987 292.707 327.627 292.693 327.24 292.68C327.227 292.467 327.18 292.22 327.1 291.94C327.02 291.647 326.927 291.393 326.82 291.18C327.073 291.207 327.293 291.227 327.48 291.24C327.68 291.253 327.833 291.253 327.94 291.24C328.033 291.24 328.113 291.233 328.18 291.22C328.247 291.207 328.307 291.167 328.36 291.1C328.44 291.02 328.5 290.84 328.54 290.56C328.58 290.267 328.613 289.827 328.64 289.24V288.98ZM318.78 283H320.92V287.46C320.92 288.22 320.84 288.94 320.68 289.62C320.52 290.287 320.2 290.907 319.72 291.48C319.253 292.04 318.567 292.54 317.66 292.98C316.767 293.407 315.573 293.76 314.08 294.04C314.013 293.88 313.913 293.687 313.78 293.46C313.647 293.22 313.5 292.987 313.34 292.76C313.18 292.533 313.033 292.353 312.9 292.22C314.193 291.993 315.227 291.72 316 291.4C316.787 291.08 317.38 290.713 317.78 290.3C318.18 289.887 318.447 289.44 318.58 288.96C318.713 288.48 318.78 287.973 318.78 287.44V283ZM323.14 283H325.4V292.66H323.14V283ZM315.42 293.06H328.66V298.36H326.22V295.02H317.74V298.58H315.42V293.06ZM321.1 295.68H323.48C323.28 296.493 322.98 297.227 322.58 297.88C322.193 298.533 321.633 299.113 320.9 299.62C320.18 300.113 319.227 300.533 318.04 300.88C316.867 301.24 315.393 301.533 313.62 301.76C313.58 301.56 313.5 301.333 313.38 301.08C313.26 300.827 313.133 300.573 313 300.32C312.867 300.08 312.733 299.88 312.6 299.72C314.2 299.56 315.507 299.367 316.52 299.14C317.547 298.913 318.36 298.64 318.96 298.32C319.573 297.987 320.04 297.607 320.36 297.18C320.693 296.74 320.94 296.24 321.1 295.68ZM322.34 299.28L323.58 297.7C324.18 297.833 324.833 297.993 325.54 298.18C326.247 298.367 326.953 298.567 327.66 298.78C328.38 298.98 329.053 299.187 329.68 299.4C330.32 299.6 330.873 299.8 331.34 300L330 301.8C329.573 301.6 329.053 301.387 328.44 301.16C327.827 300.947 327.167 300.72 326.46 300.48C325.767 300.253 325.06 300.04 324.34 299.84C323.633 299.627 322.967 299.44 322.34 299.28ZM314.62 286.58H316.76C316.667 287.26 316.567 287.967 316.46 288.7C316.367 289.42 316.267 290.04 316.16 290.56H314C314.107 290.013 314.22 289.38 314.34 288.66C314.46 287.927 314.553 287.233 314.62 286.58ZM336.22 284.34H348.48V286.64H336.22V284.34ZM336.22 288.96H348.52V291.2H336.22V288.96ZM336.18 293.68H348.6V295.94H336.18V293.68ZM334.84 284.34H337.2V291.54C337.2 292.327 337.167 293.187 337.1 294.12C337.033 295.053 336.9 295.993 336.7 296.94C336.513 297.873 336.227 298.767 335.84 299.62C335.467 300.473 334.973 301.233 334.36 301.9C334.24 301.74 334.06 301.56 333.82 301.36C333.58 301.16 333.333 300.967 333.08 300.78C332.84 300.593 332.633 300.447 332.46 300.34C333.007 299.74 333.44 299.08 333.76 298.36C334.08 297.627 334.313 296.873 334.46 296.1C334.62 295.313 334.72 294.533 334.76 293.76C334.813 292.973 334.84 292.227 334.84 291.52V284.34ZM347.64 284.34H350.04V298.96C350.04 299.6 349.96 300.093 349.8 300.44C349.64 300.8 349.353 301.073 348.94 301.26C348.54 301.447 348.027 301.567 347.4 301.62C346.773 301.673 346 301.693 345.08 301.68C345.04 301.36 344.94 300.973 344.78 300.52C344.62 300.067 344.46 299.687 344.3 299.38C344.687 299.393 345.073 299.407 345.46 299.42C345.847 299.42 346.187 299.42 346.48 299.42C346.787 299.42 347.007 299.42 347.14 299.42C347.327 299.42 347.453 299.387 347.52 299.32C347.6 299.253 347.64 299.127 347.64 298.94V284.34ZM341 285.26H343.42V301.54H341V285.26Z" fill="white"/>
<path d="M175 321H172.153C158.898 321 148.153 310.255 148.153 297V240.75V179.417C148.153 169.638 140.732 161.454 131 160.5V160.5V160.5C140.732 159.546 148.153 151.362 148.153 141.583V80.25V24C148.153 10.7452 158.898 0 172.153 0H175" stroke="#1F32D6" stroke-width="2" stroke-linejoin="bevel"/>
<path d="M0.84 151.72L2.46 150.2C2.82 150.507 3.20667 150.847 3.62 151.22C4.04667 151.593 4.44667 151.967 4.82 152.34C5.20667 152.713 5.51333 153.053 5.74 153.36L4.04 155.06C3.82667 154.767 3.53333 154.427 3.16 154.04C2.8 153.64 2.41333 153.24 2 152.84C1.6 152.427 1.21333 152.053 0.84 151.72ZM-0.12 156.18H4.66V158.48H-0.12V156.18ZM7.22 151.52H18.36V153.94H7.22V151.52ZM12.54 152.32H15.08V165.7C15.08 166.393 14.9933 166.933 14.82 167.32C14.66 167.707 14.3533 168.007 13.9 168.22C13.4467 168.433 12.88 168.567 12.2 168.62C11.5333 168.673 10.7267 168.7 9.78 168.7C9.75333 168.46 9.68667 168.18 9.58 167.86C9.47333 167.54 9.35333 167.227 9.22 166.92C9.08667 166.6 8.95333 166.327 8.82 166.1C9.24667 166.14 9.67333 166.167 10.1 166.18C10.5267 166.18 10.9133 166.18 11.26 166.18C11.6067 166.167 11.8467 166.16 11.98 166.16C12.18 166.147 12.32 166.107 12.4 166.04C12.4933 165.96 12.54 165.833 12.54 165.66V152.32ZM2.8 168.48L2.28 166.16L2.88 165.36L7.8 162.16C7.85333 162.387 7.91333 162.647 7.98 162.94C8.04667 163.22 8.12667 163.487 8.22 163.74C8.31333 163.993 8.4 164.207 8.48 164.38C7.36 165.14 6.44667 165.76 5.74 166.24C5.04667 166.72 4.5 167.1 4.1 167.38C3.71333 167.673 3.42667 167.9 3.24 168.06C3.05333 168.22 2.90667 168.36 2.8 168.48ZM2.8 168.48C2.73333 168.293 2.63333 168.067 2.5 167.8C2.38 167.547 2.24667 167.293 2.1 167.04C1.95333 166.8 1.81333 166.6 1.68 166.44C1.90667 166.293 2.14667 166.053 2.4 165.72C2.66667 165.387 2.8 164.993 2.8 164.54V156.18H5.12V166.22C5.12 166.22 5.04 166.273 4.88 166.38C4.73333 166.487 4.54 166.627 4.3 166.8C4.07333 166.96 3.84 167.14 3.6 167.34C3.37333 167.54 3.18 167.733 3.02 167.92C2.87333 168.12 2.8 168.307 2.8 168.48ZM27.72 154.56H30.2V168.74H27.72V154.56ZM24.08 158.56V159.94H34V158.56H24.08ZM24.08 155.38V156.74H34V155.38H24.08ZM21.74 153.42H36.48V161.9H21.74V153.42ZM19.96 163.22H38.1V165.44H19.96V163.22ZM23.32 151.02L25.4 150.08C25.7733 150.507 26.16 150.993 26.56 151.54C26.9733 152.087 27.28 152.573 27.48 153L25.28 154.04C25.1067 153.64 24.8267 153.153 24.44 152.58C24.0667 151.993 23.6933 151.473 23.32 151.02ZM32.64 150.16L35.32 150.94C34.8933 151.607 34.4533 152.26 34 152.9C33.56 153.527 33.16 154.06 32.8 154.5L30.66 153.78C30.9 153.447 31.14 153.073 31.38 152.66C31.6333 152.233 31.8667 151.807 32.08 151.38C32.3067 150.94 32.4933 150.533 32.64 150.16ZM49.6 165.68L50.72 163.9C51.5867 164.14 52.46 164.427 53.34 164.76C54.22 165.08 55.04 165.42 55.8 165.78C56.5733 166.127 57.2333 166.467 57.78 166.8L56.32 168.7C55.8133 168.34 55.2 167.98 54.48 167.62C53.76 167.26 52.98 166.913 52.14 166.58C51.3 166.233 50.4533 165.933 49.6 165.68ZM47.2 150.5L49.62 149.76C49.8867 150.173 50.1467 150.633 50.4 151.14C50.6667 151.647 50.86 152.093 50.98 152.48L48.42 153.3C48.3267 152.927 48.16 152.48 47.92 151.96C47.68 151.427 47.44 150.94 47.2 150.5ZM40.54 151.88H57.54V156.48H55.02V154.12H42.92V156.48H40.54V151.88ZM48.66 154.98H51.2C51.1467 156.393 51.06 157.713 50.94 158.94C50.8333 160.167 50.6133 161.287 50.28 162.3C49.9467 163.313 49.4467 164.233 48.78 165.06C48.1133 165.873 47.22 166.587 46.1 167.2C44.9933 167.827 43.58 168.347 41.86 168.76C41.7533 168.44 41.5667 168.08 41.3 167.68C41.0333 167.28 40.7733 166.953 40.52 166.7C42.0933 166.353 43.38 165.927 44.38 165.42C45.38 164.913 46.16 164.32 46.72 163.64C47.2933 162.96 47.7067 162.193 47.96 161.34C48.2267 160.473 48.4 159.513 48.48 158.46C48.56 157.393 48.62 156.233 48.66 154.98ZM40.36 161.52H57.76V163.52H40.36V161.52ZM43.64 156.1L45.04 154.54C45.3867 154.7 45.7467 154.9 46.12 155.14C46.4933 155.38 46.8467 155.627 47.18 155.88C47.5267 156.133 47.8067 156.373 48.02 156.6L46.52 158.32C46.3333 158.093 46.08 157.847 45.76 157.58C45.44 157.313 45.0933 157.047 44.72 156.78C44.3467 156.513 43.9867 156.287 43.64 156.1ZM41.6 159.1L42.96 157.5C43.32 157.66 43.6933 157.853 44.08 158.08C44.4667 158.293 44.8333 158.527 45.18 158.78C45.5267 159.02 45.8067 159.247 46.02 159.46L44.58 161.26C44.3667 161.033 44.0933 160.793 43.76 160.54C43.44 160.273 43.0867 160.013 42.7 159.76C42.3267 159.507 41.96 159.287 41.6 159.1ZM59.46 162.56C60.2333 162.4 61.1667 162.187 62.26 161.92C63.3533 161.653 64.4733 161.387 65.62 161.12L65.9 163.24C64.9267 163.547 63.9533 163.853 62.98 164.16C62.02 164.467 61.1267 164.747 60.3 165L59.46 162.56ZM64.6 150.14H66.96V168.78H64.6V150.14ZM60.72 152.34H63V163.1H60.72V152.34ZM70.02 153.58H78.48V155.84H70.02V153.58ZM70.04 150L72.5 150.48C72.22 151.72 71.8667 152.927 71.44 154.1C71.0267 155.273 70.5467 156.367 70 157.38C69.4667 158.393 68.8733 159.273 68.22 160.02C68.1 159.86 67.9267 159.667 67.7 159.44C67.4733 159.213 67.2333 158.987 66.98 158.76C66.74 158.533 66.5333 158.353 66.36 158.22C66.96 157.593 67.4933 156.847 67.96 155.98C68.44 155.113 68.8467 154.167 69.18 153.14C69.5267 152.113 69.8133 151.067 70.04 150ZM75.06 154.8L77.48 155.14C77.0533 157.393 76.4533 159.393 75.68 161.14C74.92 162.873 73.9267 164.38 72.7 165.66C71.4867 166.927 69.9933 167.993 68.22 168.86C68.1533 168.66 68.04 168.42 67.88 168.14C67.72 167.873 67.5467 167.6 67.36 167.32C67.1867 167.053 67.0267 166.833 66.88 166.66C68.4933 165.967 69.8467 165.08 70.94 164C72.0333 162.907 72.9133 161.6 73.58 160.08C74.2467 158.547 74.74 156.787 75.06 154.8ZM70.96 155.12C71.3067 156.893 71.8 158.547 72.44 160.08C73.0933 161.6 73.9333 162.927 74.96 164.06C75.9867 165.193 77.2333 166.073 78.7 166.7C78.5267 166.86 78.3267 167.06 78.1 167.3C77.8867 167.553 77.6867 167.807 77.5 168.06C77.3133 168.327 77.16 168.573 77.04 168.8C75.4667 168.013 74.1467 166.98 73.08 165.7C72.0133 164.42 71.1333 162.927 70.44 161.22C69.76 159.5 69.2067 157.607 68.78 155.54L70.96 155.12ZM88.92 152.3C88.3733 153.06 87.68 153.847 86.84 154.66C86.0133 155.473 85.0933 156.253 84.08 157C83.08 157.747 82.0333 158.413 80.94 159C80.8333 158.8 80.6933 158.58 80.52 158.34C80.36 158.1 80.18 157.867 79.98 157.64C79.7933 157.413 79.6133 157.213 79.44 157.04C80.5867 156.493 81.6867 155.82 82.74 155.02C83.7933 154.207 84.7333 153.36 85.56 152.48C86.4 151.6 87.0667 150.753 87.56 149.94H90.06C90.6067 150.7 91.2067 151.427 91.86 152.12C92.5133 152.813 93.2133 153.453 93.96 154.04C94.7067 154.627 95.4733 155.153 96.26 155.62C97.0467 156.087 97.84 156.48 98.64 156.8C98.3333 157.107 98.0467 157.453 97.78 157.84C97.5133 158.227 97.2667 158.6 97.04 158.96C96.28 158.56 95.5067 158.1 94.72 157.58C93.9467 157.06 93.2 156.507 92.48 155.92C91.76 155.32 91.0933 154.713 90.48 154.1C89.8667 153.487 89.3467 152.887 88.92 152.3ZM83.92 156H93.98V158.1H83.92V156ZM81.52 160.08H96.34V162.16H81.52V160.08ZM80.52 166.16H97.52V168.22H80.52V166.16ZM87.62 156.84H90.16V167.2H87.62V156.84ZM82.78 162.92L84.7 162.12C84.9533 162.453 85.2 162.82 85.44 163.22C85.6933 163.62 85.92 164.013 86.12 164.4C86.32 164.787 86.4667 165.133 86.56 165.44L84.5 166.36C84.42 166.053 84.2867 165.7 84.1 165.3C83.9133 164.887 83.7067 164.473 83.48 164.06C83.2533 163.647 83.02 163.267 82.78 162.92ZM92.94 162.14L95.24 162.98C94.84 163.593 94.4267 164.207 94 164.82C93.5733 165.42 93.18 165.933 92.82 166.36L91.02 165.6C91.2467 165.28 91.48 164.927 91.72 164.54C91.96 164.14 92.1867 163.733 92.4 163.32C92.6133 162.893 92.7933 162.5 92.94 162.14ZM109.32 151.14H118.3V153.22H109.32V151.14ZM112.82 152.42L114.86 152.88C114.647 153.44 114.433 153.98 114.22 154.5C114.007 155.02 113.807 155.473 113.62 155.86L111.8 155.4C111.92 155.12 112.04 154.807 112.16 154.46C112.293 154.113 112.42 153.76 112.54 153.4C112.66 153.04 112.753 152.713 112.82 152.42ZM109.48 154.92H117.68V164.24H115.62V156.74H111.46V164.32H109.48V154.92ZM112.6 157.46H114.62C114.593 159.06 114.52 160.473 114.4 161.7C114.293 162.927 114.06 164 113.7 164.92C113.353 165.827 112.807 166.607 112.06 167.26C111.327 167.913 110.333 168.46 109.08 168.9C108.973 168.633 108.8 168.327 108.56 167.98C108.333 167.647 108.113 167.387 107.9 167.2C109.02 166.827 109.893 166.38 110.52 165.86C111.147 165.327 111.6 164.68 111.88 163.92C112.173 163.16 112.36 162.253 112.44 161.2C112.52 160.133 112.573 158.887 112.6 157.46ZM113.82 165.8L115.04 164.3C115.427 164.58 115.847 164.887 116.3 165.22C116.767 165.553 117.207 165.887 117.62 166.22C118.033 166.54 118.373 166.833 118.64 167.1L117.36 168.78C117.107 168.5 116.773 168.18 116.36 167.82C115.96 167.473 115.533 167.127 115.08 166.78C114.64 166.42 114.22 166.093 113.82 165.8ZM99.86 151.96H109V155.48H106.84V153.88H101.92V155.48H99.86V151.96ZM101.3 162.42H108.12V168.62H105.94V164.28H103.38V168.62H101.3V162.42ZM101.98 166.24H106.78V168.1H101.98V166.24ZM102.86 154.16L104.96 154.56C104.493 155.427 103.913 156.253 103.22 157.04C102.54 157.827 101.7 158.553 100.7 159.22C100.607 159.047 100.48 158.867 100.32 158.68C100.16 158.48 99.9933 158.287 99.82 158.1C99.66 157.913 99.5067 157.773 99.36 157.68C100.2 157.187 100.913 156.627 101.5 156C102.1 155.36 102.553 154.747 102.86 154.16ZM103.64 155.44H106.96V157.22H102.74L103.64 155.44ZM106.62 155.44H107.1L107.52 155.38L108.8 156.24C108.28 157.373 107.58 158.387 106.7 159.28C105.833 160.173 104.853 160.94 103.76 161.58C102.68 162.22 101.553 162.727 100.38 163.1C100.34 162.887 100.273 162.633 100.18 162.34C100.087 162.047 99.98 161.767 99.86 161.5C99.7533 161.22 99.6467 161 99.54 160.84C100.593 160.573 101.587 160.2 102.52 159.72C103.453 159.24 104.28 158.673 105 158.02C105.72 157.353 106.26 156.613 106.62 155.8V155.44ZM102.84 150.54L105.12 150.06C105.307 150.46 105.513 150.9 105.74 151.38C105.98 151.86 106.16 152.26 106.28 152.58L103.9 153.16C103.793 152.827 103.64 152.413 103.44 151.92C103.24 151.413 103.04 150.953 102.84 150.54ZM101.64 159.12L103.2 157.7C103.667 157.927 104.187 158.18 104.76 158.46C105.333 158.727 105.907 159.007 106.48 159.3C107.067 159.58 107.613 159.86 108.12 160.14C108.64 160.42 109.087 160.673 109.46 160.9L107.8 162.52C107.467 162.293 107.047 162.04 106.54 161.76C106.047 161.467 105.513 161.167 104.94 160.86C104.38 160.553 103.813 160.247 103.24 159.94C102.667 159.633 102.133 159.36 101.64 159.12Z" fill="#1F32D6"/>
</g>
<defs>
<clipPath id="clip0_102_2">
<rect width="419" height="321" fill="white"/>
</clipPath>
</defs>
</svg>
